<svg width="71" height="70" viewBox="0 0 71 70" fill="none" xmlns="http://www.w3.org/2000/svg">
<rect x="5.81601" y="0.539889" width="64.5491" height="63.3786" transform="rotate(4.77534 5.81601 0.539889)" fill="white" stroke="#002F76"/>
<path d="M46.8682 21.3616C42.517 21.0018 37.9918 22.178 37.7497 25.106L37.5983 26.9375C43.7559 27.752 47.8464 30.8386 47.5416 34.5249L46.8953 42.3407L46.9479 42.4155C50.63 42.3441 53.9848 41.1181 54.1921 38.61L55.1895 26.548C55.4899 23.6248 51.2194 21.7214 46.8682 21.3616Z" fill="#F0831D"/>
<path d="M35.2653 26.7446L35.4168 24.9131C35.6598 21.9735 31.3893 20.07 27.0381 19.7102C22.6869 19.3504 18.1608 20.5383 17.9187 23.4663L16.9223 35.5167C16.714 38.0364 19.8228 39.7851 23.4422 40.472L23.5656 40.3999L24.2119 32.5841C24.5157 28.9095 29.0576 26.5367 35.2653 26.7446Z" fill="#F0831D"/>
<path d="M36.2995 28.4393C30.5485 27.9638 26.0276 29.7981 25.7865 32.7144L24.5992 47.0745C24.358 49.9909 28.5162 52.5428 34.2673 53.0183C40.0183 53.4938 44.5392 51.6595 44.7803 48.7432L44.9886 46.2235C41.8957 48.1234 38.2457 48.9075 34.6454 48.4455C32.2573 48.2894 29.9179 47.6979 27.7426 46.7002L27.9094 44.6821C30.0407 45.8119 32.3883 46.4745 34.7958 46.6257C39.707 47.0317 43.8385 45.9287 45.1746 43.6901L45.4389 40.4938C43.1565 42.1021 39.4672 42.9716 35.1276 42.6128C32.7395 42.4567 30.4001 41.8652 28.2248 40.8675L28.3956 38.8027C30.5268 39.9326 32.8745 40.5952 35.282 40.7463C40.1931 41.1524 44.313 40.1893 45.6492 37.9508L45.9443 34.3812C46.2088 31.4667 42.0506 28.9148 36.2995 28.4393Z" fill="#F0831D"/>
</svg>
