<svg width="405" height="405" viewBox="0 0 405 405" fill="none" xmlns="http://www.w3.org/2000/svg">
<rect x="144.474" y="42.6387" width="64.5491" height="63.3786" fill="white" stroke="#002F76"/>
<path d="M176.769 68.747C175.538 68.747 174.386 69.2243 173.514 70.0967C172.645 70.9691 172.164 72.1214 172.164 73.3518C172.164 74.5822 172.645 75.7344 173.514 76.6068C174.386 77.4751 175.538 77.9566 176.769 77.9566C177.999 77.9566 179.151 77.4751 180.024 76.6068C180.892 75.7344 181.374 74.5822 181.374 73.3518C181.374 72.1214 180.892 70.9691 180.024 70.0967C179.598 69.6673 179.091 69.3269 178.532 69.0952C177.973 68.8635 177.374 68.7451 176.769 68.747V68.747ZM193.735 78.438L191.044 76.1377C191.172 75.3558 191.238 74.5575 191.238 73.7633C191.238 72.9691 191.172 72.1666 191.044 71.3889L193.735 69.0885C193.939 68.9145 194.084 68.6827 194.153 68.4239C194.221 68.1652 194.209 67.8917 194.118 67.64L194.081 67.533C193.34 65.4618 192.231 63.542 190.805 61.8665L190.731 61.7801C190.558 61.5766 190.328 61.4303 190.07 61.3605C189.812 61.2907 189.539 61.3007 189.287 61.3891L185.945 62.5784C184.711 61.5661 183.336 60.7678 181.847 60.2122L181.201 56.7185C181.152 56.4553 181.024 56.2132 180.835 56.0243C180.645 55.8354 180.402 55.7086 180.139 55.6609L180.028 55.6403C177.888 55.2535 175.633 55.2535 173.493 55.6403L173.382 55.6609C173.119 55.7086 172.876 55.8354 172.686 56.0243C172.497 56.2132 172.369 56.4553 172.32 56.7185L171.67 60.2287C170.195 60.7887 168.82 61.585 167.6 62.5866L164.234 61.3891C163.982 61.3 163.709 61.2897 163.451 61.3595C163.193 61.4293 162.962 61.576 162.79 61.7801L162.716 61.8665C161.293 63.5438 160.184 65.4631 159.44 67.533L159.403 67.64C159.218 68.1544 159.37 68.7305 159.786 69.0885L162.51 71.4136C162.382 72.1872 162.321 72.9773 162.321 73.7592C162.321 74.5493 162.382 75.3394 162.51 76.1048L159.794 78.4298C159.591 78.6039 159.445 78.8357 159.377 79.0944C159.308 79.3532 159.32 79.6266 159.411 79.8783L159.448 79.9853C160.193 82.0552 161.292 83.9688 162.724 85.6518L162.798 85.7383C162.971 85.9417 163.202 86.088 163.46 86.1578C163.717 86.2276 163.99 86.2176 164.242 86.1292L167.609 84.9317C168.835 85.9399 170.201 86.7382 171.678 87.2897L172.329 90.7998C172.377 91.063 172.505 91.3052 172.695 91.4941C172.884 91.683 173.127 91.8097 173.39 91.8574L173.501 91.878C175.662 92.2669 177.875 92.2669 180.036 91.878L180.147 91.8574C180.411 91.8097 180.653 91.683 180.843 91.4941C181.033 91.3052 181.16 91.063 181.209 90.7998L181.855 87.3061C183.345 86.7465 184.719 85.9522 185.954 84.9399L189.295 86.1292C189.547 86.2183 189.82 86.2287 190.078 86.1588C190.336 86.089 190.567 85.9423 190.74 85.7383L190.814 85.6518C192.246 83.9605 193.344 82.0552 194.089 79.9853L194.126 79.8783C194.303 79.3681 194.151 78.7961 193.735 78.438ZM176.769 80.5861C172.773 80.5861 169.534 77.3475 169.534 73.3518C169.534 69.356 172.773 66.1174 176.769 66.1174C180.765 66.1174 184.003 69.356 184.003 73.3518C184.003 77.3475 180.765 80.5861 176.769 80.5861Z" fill="#F0831D"/>
<path d="M141.632 86.6185C141.115 88.8913 140.462 92.4711 140.462 92.4711L144.559 94.8122C144.559 94.8122 145.346 93.7857 145.729 93.0564C146.607 91.3883 146.831 90.2578 146.9 88.3743C146.959 86.7592 146.315 84.2775 146.315 84.2775C146.315 84.2775 147.413 83.6036 148.07 83.107C149.618 81.9383 151.035 81.456 151.582 79.5954C151.904 78.499 152.313 77.547 151.582 76.6691C150.439 75.2978 149.647 78.7578 148.07 79.5954C146.794 80.2737 144.559 80.7659 144.559 80.7659V78.4249C144.559 78.4249 143.351 80.5046 142.803 81.9364C142.129 83.6966 142.051 84.7807 141.632 86.6185Z" fill="white" stroke="#002F76"/>
<path d="M211.278 124.075C208.808 126.895 205.426 131.684 205.426 131.684L212.449 139.292C212.449 139.292 214.291 138.705 215.375 138.121C217.515 136.97 218.289 135.691 220.057 134.025C221.469 132.694 223.569 130.513 223.569 130.513C223.569 130.513 223.097 131.919 222.984 132.854C222.874 133.762 222.644 134.346 222.984 135.195C223.344 136.096 223.773 136.877 224.739 136.951C226.181 137.062 225.573 134.845 225.91 133.439C226.339 131.647 226.495 129.343 226.495 129.343C226.518 128.657 226.765 127.632 226.495 127.002C226.24 126.407 225.495 126.455 225.325 125.831C225.134 125.134 225.696 124.695 225.325 124.075C225.062 123.637 225.046 123.899 224.739 123.49C224.328 122.941 224.566 122.283 224.154 121.734C223.847 121.325 223.472 121.299 222.984 121.149C222.11 120.88 222.139 121.07 221.228 121.149C220.067 121.25 218.302 121.734 218.302 121.734C218.302 121.734 220.578 118.661 222.398 117.052C223.871 115.75 225.017 115.422 226.495 114.126C227.467 113.273 228.175 113.075 228.251 111.785C228.293 111.063 228.558 111.813 228.251 111.2C227.565 109.828 226.059 111.003 224.739 111.785C221.944 113.44 220.72 114.883 218.302 117.052C215.414 119.642 213.834 121.158 211.278 124.075Z" fill="white"/>
<path d="M205.426 131.684L205.017 131.395L204.784 131.726L205.058 132.023L205.426 131.684ZM211.278 124.075L211.654 124.405L211.654 124.405L211.278 124.075ZM218.302 117.052L218.635 117.424L218.635 117.424L218.302 117.052ZM224.739 111.785L224.994 112.215L224.994 112.215L224.739 111.785ZM228.251 111.2L228.698 110.976L228.698 110.976L228.251 111.2ZM228.251 111.785L228.75 111.814L228.75 111.814L228.251 111.785ZM226.495 114.126L226.165 113.75L226.165 113.75L226.495 114.126ZM222.398 117.052L222.067 116.677L222.067 116.677L222.398 117.052ZM218.302 121.734L217.9 121.437L217.039 122.599L218.434 122.216L218.302 121.734ZM221.228 121.149L221.271 121.647L221.271 121.647L221.228 121.149ZM222.984 121.149L222.837 121.627L222.837 121.627L222.984 121.149ZM224.154 121.734L223.754 122.034L223.754 122.034L224.154 121.734ZM224.739 123.49L225.139 123.19L225.139 123.19L224.739 123.49ZM225.325 124.075L225.753 123.818L225.753 123.818L225.325 124.075ZM225.325 125.831L225.807 125.699L225.807 125.699L225.325 125.831ZM226.495 127.002L226.036 127.198L226.036 127.198L226.495 127.002ZM226.495 129.343L226.994 129.376L226.995 129.368L226.995 129.359L226.495 129.343ZM225.91 133.439L226.396 133.556L226.396 133.556L225.91 133.439ZM224.739 136.951L224.778 136.452L224.778 136.452L224.739 136.951ZM222.984 135.195L222.519 135.381L222.519 135.381L222.984 135.195ZM222.984 132.854L222.487 132.794L222.487 132.794L222.984 132.854ZM223.569 130.513L224.043 130.672L223.209 130.166L223.569 130.513ZM220.057 134.025L220.4 134.389L220.4 134.389L220.057 134.025ZM215.375 138.121L215.612 138.562L215.612 138.562L215.375 138.121ZM212.449 139.292L212.082 139.631L212.297 139.865L212.601 139.768L212.449 139.292ZM205.426 131.684C205.834 131.972 205.834 131.972 205.834 131.972C205.834 131.972 205.834 131.972 205.834 131.972C205.834 131.972 205.835 131.972 205.835 131.971C205.835 131.971 205.836 131.97 205.836 131.969C205.838 131.967 205.84 131.963 205.844 131.959C205.85 131.95 205.86 131.936 205.872 131.918C205.897 131.883 205.935 131.831 205.983 131.763C206.08 131.627 206.221 131.43 206.398 131.184C206.753 130.692 207.251 130.008 207.827 129.235C208.98 127.688 210.433 125.799 211.654 124.405L210.902 123.746C209.653 125.171 208.181 127.086 207.025 128.638C206.446 129.415 205.944 130.104 205.587 130.599C205.409 130.846 205.267 131.045 205.169 131.182C205.12 131.251 205.082 131.304 205.057 131.34C205.044 131.358 205.034 131.372 205.027 131.381C205.024 131.386 205.022 131.389 205.02 131.391C205.019 131.393 205.019 131.394 205.018 131.394C205.018 131.394 205.018 131.395 205.018 131.395C205.018 131.395 205.017 131.395 205.017 131.395C205.017 131.395 205.017 131.395 205.426 131.684ZM211.654 124.405C214.193 121.507 215.758 120.006 218.635 117.424L217.968 116.68C215.071 119.279 213.475 120.809 210.902 123.746L211.654 124.405ZM218.635 117.424C221.091 115.222 222.255 113.837 224.994 112.215L224.485 111.355C221.633 113.043 220.348 114.544 217.968 116.68L218.635 117.424ZM224.994 112.215C225.164 112.114 225.336 112.008 225.504 111.904C225.673 111.8 225.838 111.698 226.002 111.602C226.332 111.407 226.632 111.25 226.898 111.157C227.169 111.062 227.349 111.053 227.467 111.085C227.56 111.11 227.682 111.179 227.804 111.423L228.698 110.976C228.477 110.534 228.154 110.236 227.73 110.12C227.331 110.011 226.924 110.088 226.567 110.213C226.206 110.34 225.839 110.537 225.495 110.74C225.321 110.842 225.146 110.95 224.978 111.054C224.808 111.159 224.645 111.26 224.485 111.355L224.994 112.215ZM227.804 111.423C227.885 111.585 227.935 111.672 227.967 111.721C227.975 111.734 227.982 111.744 227.988 111.752C227.99 111.754 227.991 111.755 227.991 111.756C227.993 111.758 227.99 111.755 227.987 111.751C227.987 111.749 227.985 111.747 227.982 111.743C227.981 111.741 227.976 111.734 227.97 111.725C227.967 111.72 227.961 111.709 227.957 111.702C227.952 111.691 227.938 111.663 227.931 111.645C227.919 111.609 227.897 111.481 227.903 111.39C227.985 111.181 228.317 110.971 228.495 110.974C228.56 110.992 228.648 111.032 228.674 111.048C228.687 111.057 228.708 111.073 228.716 111.079C228.73 111.091 228.74 111.1 228.743 111.103C228.75 111.11 228.755 111.116 228.756 111.116C228.759 111.119 228.744 111.103 228.725 111.086C228.707 111.07 228.681 111.049 228.646 111.027C228.583 110.988 228.446 110.92 228.266 110.951C228.072 110.985 227.952 111.109 227.89 111.207C227.832 111.298 227.803 111.395 227.787 111.473C227.769 111.555 227.758 111.65 227.752 111.755L228.75 111.814C228.754 111.74 228.761 111.699 228.765 111.683C228.769 111.66 228.766 111.693 228.734 111.744C228.698 111.801 228.604 111.908 228.435 111.937C228.279 111.964 228.164 111.905 228.118 111.876C228.068 111.845 228.036 111.81 228.038 111.812C228.038 111.813 228.044 111.818 228.051 111.825C228.054 111.828 228.064 111.838 228.078 111.849C228.086 111.856 228.107 111.872 228.121 111.881C228.146 111.896 228.234 111.937 228.299 111.954C228.477 111.958 228.809 111.747 228.892 111.539C228.897 111.447 228.876 111.319 228.863 111.283C228.846 111.238 228.824 111.204 228.824 111.204C228.818 111.195 228.814 111.188 228.812 111.185C228.809 111.181 228.808 111.179 228.806 111.177C228.804 111.174 228.803 111.172 228.803 111.172C228.802 111.171 228.802 111.171 228.802 111.171C228.802 111.171 228.802 111.171 228.802 111.17C228.802 111.17 228.802 111.17 228.802 111.17C228.802 111.17 228.802 111.171 228.803 111.171C228.805 111.175 228.806 111.177 228.806 111.176C228.802 111.17 228.77 111.12 228.698 110.976L227.804 111.423ZM227.752 111.755C227.721 112.286 227.571 112.543 227.35 112.771C227.224 112.902 227.068 113.027 226.862 113.187C226.663 113.342 226.422 113.525 226.165 113.75L226.825 114.502C227.054 114.301 227.267 114.139 227.476 113.977C227.678 113.819 227.886 113.655 228.068 113.468C228.463 113.061 228.705 112.574 228.75 111.814L227.752 111.755ZM226.165 113.75C225.46 114.368 224.836 114.755 224.181 115.162C223.525 115.569 222.838 115.996 222.067 116.677L222.729 117.427C223.432 116.806 224.054 116.418 224.709 116.012C225.364 115.605 226.052 115.18 226.825 114.502L226.165 113.75ZM222.067 116.677C221.126 117.51 220.081 118.706 219.281 119.679C218.879 120.169 218.534 120.607 218.29 120.923C218.168 121.082 218.071 121.209 218.004 121.298C217.97 121.342 217.945 121.376 217.927 121.4C217.918 121.412 217.912 121.421 217.907 121.427C217.905 121.43 217.903 121.432 217.902 121.434C217.901 121.435 217.901 121.435 217.9 121.436C217.9 121.436 217.9 121.436 217.9 121.436C217.9 121.436 217.9 121.436 217.9 121.436C217.9 121.437 217.9 121.437 218.302 121.734C218.703 122.032 218.703 122.032 218.703 122.032C218.703 122.032 218.703 122.032 218.703 122.032C218.703 122.032 218.703 122.032 218.704 122.031C218.704 122.031 218.704 122.031 218.705 122.03C218.706 122.029 218.707 122.027 218.709 122.024C218.713 122.018 218.72 122.01 218.728 121.999C218.745 121.976 218.77 121.943 218.802 121.9C218.867 121.814 218.962 121.69 219.081 121.534C219.321 121.224 219.659 120.794 220.054 120.314C220.847 119.348 221.851 118.204 222.729 117.427L222.067 116.677ZM218.302 121.734C218.434 122.216 218.434 122.216 218.434 122.216C218.434 122.216 218.434 122.216 218.434 122.216C218.434 122.216 218.434 122.216 218.434 122.216C218.434 122.216 218.434 122.216 218.435 122.216C218.435 122.216 218.436 122.216 218.438 122.215C218.441 122.214 218.446 122.213 218.452 122.211C218.465 122.208 218.484 122.203 218.508 122.196C218.557 122.183 218.629 122.164 218.719 122.141C218.9 122.095 219.152 122.033 219.44 121.967C220.023 121.834 220.727 121.694 221.271 121.647L221.184 120.651C220.568 120.704 219.809 120.857 219.218 120.992C218.92 121.06 218.658 121.125 218.472 121.173C218.378 121.196 218.303 121.216 218.251 121.23C218.225 121.237 218.205 121.242 218.191 121.246C218.184 121.248 218.179 121.249 218.175 121.25C218.173 121.251 218.172 121.251 218.171 121.252C218.17 121.252 218.17 121.252 218.17 121.252C218.17 121.252 218.169 121.252 218.169 121.252C218.169 121.252 218.169 121.252 218.169 121.252C218.169 121.252 218.169 121.252 218.302 121.734ZM221.271 121.647C221.518 121.626 221.702 121.596 221.851 121.57C222.01 121.542 222.088 121.525 222.174 121.515C222.295 121.502 222.433 121.503 222.837 121.627L223.131 120.671C222.66 120.526 222.375 120.487 222.065 120.521C221.935 120.536 221.795 120.564 221.676 120.585C221.547 120.608 221.393 120.633 221.184 120.651L221.271 121.647ZM222.837 121.627C223.438 121.812 223.573 121.793 223.754 122.034L224.554 121.434C224.122 120.857 223.506 120.787 223.131 120.671L222.837 121.627ZM223.754 122.034C223.873 122.192 223.906 122.368 223.952 122.683C223.993 122.972 224.046 123.399 224.339 123.79L225.139 123.19C225.021 123.032 224.987 122.856 224.942 122.541C224.9 122.252 224.847 121.825 224.554 121.434L223.754 122.034ZM224.339 123.79C224.432 123.913 224.518 124.007 224.607 124.079C224.699 124.155 224.781 124.196 224.811 124.212C224.826 124.22 224.825 124.219 224.82 124.216C224.818 124.215 224.816 124.213 224.813 124.211C224.811 124.21 224.81 124.209 224.811 124.209C224.814 124.212 224.841 124.24 224.896 124.332L225.753 123.818C225.677 123.691 225.603 123.587 225.52 123.504C225.427 123.41 225.342 123.362 225.285 123.331C225.24 123.307 225.245 123.309 225.24 123.305C225.231 123.298 225.2 123.271 225.139 123.19L224.339 123.79ZM224.896 124.332C224.973 124.462 224.972 124.554 224.908 124.8C224.847 125.038 224.706 125.461 224.842 125.963L225.807 125.699C225.754 125.503 225.798 125.359 225.877 125.048C225.955 124.746 226.048 124.309 225.753 123.818L224.896 124.332ZM224.842 125.963C224.986 126.489 225.391 126.721 225.625 126.859C225.894 127.016 225.984 127.078 226.036 127.198L226.955 126.805C226.752 126.331 226.342 126.119 226.131 125.996C225.886 125.852 225.833 125.796 225.807 125.699L224.842 125.963ZM226.036 127.198C226.119 127.393 226.137 127.699 226.106 128.115C226.092 128.314 226.069 128.515 226.046 128.722C226.024 128.923 226.002 129.133 225.995 129.326L226.995 129.359C227 129.21 227.018 129.035 227.04 128.831C227.062 128.633 227.087 128.41 227.104 128.188C227.135 127.762 227.141 127.24 226.955 126.805L226.036 127.198ZM226.495 129.343C225.996 129.309 225.996 129.309 225.996 129.309C225.996 129.309 225.996 129.309 225.996 129.309C225.996 129.309 225.996 129.309 225.996 129.309C225.996 129.309 225.996 129.309 225.996 129.31C225.996 129.311 225.996 129.312 225.996 129.314C225.996 129.318 225.995 129.325 225.995 129.333C225.993 129.35 225.992 129.374 225.989 129.407C225.984 129.472 225.976 129.567 225.966 129.687C225.945 129.928 225.912 130.267 225.867 130.661C225.775 131.454 225.631 132.456 225.424 133.323L226.396 133.556C226.618 132.631 226.767 131.584 226.86 130.776C226.907 130.371 226.94 130.022 226.962 129.774C226.973 129.65 226.981 129.552 226.986 129.483C226.989 129.449 226.991 129.423 226.992 129.405C226.993 129.396 226.993 129.389 226.993 129.384C226.994 129.382 226.994 129.38 226.994 129.379C226.994 129.378 226.994 129.377 226.994 129.377C226.994 129.377 226.994 129.377 226.994 129.377C226.994 129.377 226.994 129.376 226.994 129.376C226.994 129.376 226.994 129.376 226.495 129.343ZM225.424 133.323C225.327 133.728 225.301 134.175 225.288 134.581C225.274 135.007 225.274 135.379 225.241 135.715C225.207 136.059 225.146 136.257 225.074 136.359C225.046 136.399 225.02 136.418 224.991 136.431C224.96 136.444 224.896 136.462 224.778 136.452L224.701 137.449C224.943 137.468 225.176 137.44 225.388 137.348C225.604 137.255 225.769 137.109 225.892 136.935C226.122 136.608 226.2 136.185 226.236 135.813C226.274 135.433 226.275 134.994 226.287 134.613C226.3 134.211 226.325 133.854 226.396 133.556L225.424 133.323ZM224.778 136.452C224.144 136.404 223.815 135.926 223.448 135.009L222.519 135.381C222.873 136.265 223.401 137.349 224.701 137.449L224.778 136.452ZM223.448 135.009C223.171 134.317 223.356 133.937 223.48 132.914L222.487 132.794C222.391 133.586 222.117 134.376 222.519 135.381L223.448 135.009ZM223.48 132.914C223.532 132.487 223.669 131.932 223.8 131.469C223.864 131.24 223.925 131.04 223.97 130.897C223.993 130.826 224.011 130.769 224.024 130.73C224.03 130.711 224.035 130.696 224.038 130.686C224.04 130.681 224.041 130.678 224.042 130.675C224.042 130.674 224.042 130.673 224.043 130.673C224.043 130.673 224.043 130.672 224.043 130.672C224.043 130.672 224.043 130.672 224.043 130.672C224.043 130.672 224.043 130.672 224.043 130.672C224.043 130.672 224.043 130.672 223.569 130.513C223.095 130.354 223.095 130.354 223.095 130.354C223.095 130.354 223.095 130.354 223.095 130.354C223.095 130.354 223.095 130.354 223.095 130.354C223.095 130.355 223.094 130.355 223.094 130.355C223.094 130.356 223.094 130.357 223.093 130.359C223.092 130.362 223.091 130.366 223.089 130.372C223.085 130.383 223.08 130.399 223.073 130.42C223.059 130.462 223.04 130.522 223.016 130.597C222.969 130.747 222.905 130.957 222.838 131.197C222.704 131.67 222.549 132.286 222.487 132.794L223.48 132.914ZM223.569 130.513C223.209 130.166 223.209 130.166 223.209 130.166C223.209 130.166 223.209 130.166 223.209 130.166C223.209 130.166 223.208 130.167 223.208 130.167C223.208 130.167 223.208 130.167 223.207 130.168C223.206 130.169 223.205 130.17 223.203 130.172C223.199 130.177 223.193 130.183 223.185 130.191C223.169 130.207 223.146 130.231 223.116 130.262C223.056 130.324 222.969 130.414 222.86 130.526C222.642 130.751 222.336 131.064 221.986 131.419C221.286 132.13 220.413 133.002 219.714 133.661L220.4 134.389C221.113 133.717 221.996 132.833 222.698 132.121C223.05 131.764 223.358 131.449 223.577 131.223C223.687 131.11 223.775 131.02 223.835 130.957C223.866 130.926 223.889 130.902 223.905 130.885C223.913 130.877 223.919 130.871 223.923 130.866C223.925 130.864 223.926 130.863 223.927 130.862C223.928 130.861 223.928 130.861 223.929 130.86C223.929 130.86 223.929 130.86 223.929 130.86C223.929 130.86 223.929 130.86 223.929 130.86C223.929 130.86 223.929 130.86 223.569 130.513ZM219.714 133.661C219.262 134.087 218.875 134.487 218.519 134.861C218.16 135.238 217.838 135.581 217.505 135.91C216.847 136.558 216.156 137.134 215.138 137.681L215.612 138.562C216.734 137.958 217.5 137.318 218.206 136.622C218.555 136.279 218.892 135.918 219.243 135.551C219.596 135.181 219.968 134.796 220.4 134.389L219.714 133.661ZM215.138 137.681C214.629 137.955 213.925 138.238 213.333 138.456C213.04 138.564 212.78 138.654 212.594 138.718C212.5 138.749 212.426 138.774 212.375 138.79C212.349 138.799 212.329 138.805 212.316 138.809C212.31 138.812 212.305 138.813 212.302 138.814C212.3 138.815 212.299 138.815 212.298 138.815C212.298 138.815 212.297 138.816 212.297 138.816C212.297 138.816 212.297 138.816 212.297 138.816C212.297 138.816 212.297 138.816 212.297 138.816C212.297 138.816 212.297 138.816 212.449 139.292C212.601 139.768 212.601 139.768 212.601 139.768C212.601 139.768 212.601 139.768 212.601 139.768C212.601 139.768 212.601 139.768 212.601 139.768C212.602 139.768 212.602 139.768 212.602 139.768C212.604 139.767 212.605 139.767 212.607 139.766C212.611 139.765 212.616 139.763 212.623 139.761C212.638 139.756 212.659 139.75 212.686 139.741C212.74 139.723 212.817 139.697 212.914 139.665C213.107 139.6 213.375 139.506 213.679 139.395C214.279 139.173 215.038 138.871 215.612 138.562L215.138 137.681ZM212.816 138.953L205.793 131.344L205.058 132.023L212.082 139.631L212.816 138.953Z" fill="#002F76"/>
<path d="M139.877 93.0564L134.61 102.421L134.024 105.932C134.024 105.932 135.791 109.023 136.365 111.199L136.379 111.253C136.899 113.222 137.219 114.433 136.951 116.467C136.695 118.403 136.279 119.787 135.195 121.149C134.284 122.294 133.555 122.792 132.269 123.49C130.998 124.179 130.195 124.512 128.757 124.66C127.149 124.827 124.66 124.075 124.66 124.075L128.172 135.78C128.172 135.78 123.597 134.336 120.563 134.025C118.062 133.767 116.588 133.52 114.125 134.025C112.212 134.417 109.443 135.78 109.443 135.78C109.443 135.78 110.153 142.038 110.614 145.73C111.152 150.045 111.076 152.186 111.784 156.264C112.467 160.197 112.783 163.465 113.54 167.384C114.46 172.145 114.342 175.317 116.466 179.675C118.172 183.174 122.319 186.113 122.319 186.113C122.319 186.113 126.453 189.973 129.927 191.38C134.8 193.353 138.231 193.007 143.388 191.965C148.599 190.913 155.679 186.113 155.679 186.113V177.334V167.384C155.679 167.384 161.64 172.793 166.214 174.993C170.911 177.252 173.927 178.639 179.089 177.919C182.537 177.438 184.217 176.458 187.283 174.993C196.329 170.671 198.695 164.64 205.426 157.435C210.181 152.344 217.131 143.974 217.131 143.974L204.841 131.684L179.089 159.191C179.089 159.191 166.132 151.249 157.435 146.9C148.737 142.552 134.61 136.951 134.61 136.951C134.61 136.951 142.015 121.016 146.315 110.614C148.196 106.064 150.997 98.909 150.997 98.909C150.997 98.909 147.101 96.7161 144.559 95.3974C142.744 94.4561 139.877 93.0564 139.877 93.0564Z" fill="#CFE0EF" stroke="#002F76"/>
<path d="M121.734 93.0563C122.905 93.6416 123.484 94.8326 124.075 95.9826C124.489 96.7879 123.49 101.25 123.49 101.25C123.49 101.25 121.964 104.057 121.149 105.932C120.37 107.723 119.393 110.614 119.393 110.614L118.223 108.858C118.223 108.858 116.995 107.36 115.882 107.103C114.746 106.84 113.875 106.972 112.955 107.688C112.305 108.194 111.994 108.858 111.785 109.444C111.576 110.029 111.993 111.944 112.37 112.37C112.747 112.796 113.769 113.183 114.711 114.126C115.653 115.068 116.467 116.467 116.467 117.052C116.467 117.637 116.36 118.722 115.881 119.393C115.032 120.585 114.157 121.484 112.955 122.319C111.768 123.144 110.854 123.223 109.444 122.905C108.329 122.653 107.664 122.144 107.103 121.149C106.397 119.896 105.273 116.633 104.381 113.869C104.923 115.673 105.515 117.722 105.932 119.393C106.725 122.568 107.002 124.387 107.688 127.587C108.374 130.786 108.847 132.563 109.444 135.78C110.327 140.548 110.708 143.247 111.199 148.071C111.502 151.035 111.785 155.679 111.785 155.679L108.273 156.264L106.517 150.412L105.347 155.679C105.347 155.679 101.431 156.375 98.909 156.264C96.3561 156.153 92.4711 155.094 92.4711 155.094C92.4711 155.094 92.2966 149.739 92.4711 146.315C92.7409 141.02 93.6767 138.127 94.2269 132.854C94.8691 126.699 95.3974 117.052 95.3974 117.052C95.6416 113.396 95.3974 110.614 95.9827 107.688C96.5679 104.762 96.6573 104.377 98.3237 103.591C99.5639 103.006 101.835 103.591 101.835 103.591C101.835 103.591 103.249 100.126 104.762 98.3237C106.436 96.3272 107.674 95.3424 110.029 94.2268C111.335 93.608 112.135 93.3929 113.54 93.0563C115.333 92.6272 116.381 92.3959 118.223 92.4711C119.612 92.5278 120.564 92.4711 121.734 93.0563Z" fill="#002F76"/>
<path d="M124.075 95.9826C123.484 94.8326 122.905 93.6416 121.734 93.0563C120.564 92.4711 119.612 92.5278 118.223 92.4711C116.381 92.3959 115.333 92.6272 113.54 93.0563C112.135 93.3929 111.335 93.608 110.029 94.2268C107.674 95.3424 106.436 96.3272 104.762 98.3237C103.249 100.126 101.835 103.591 101.835 103.591C101.835 103.591 99.5639 103.006 98.3237 103.591C96.6573 104.377 96.5679 104.762 95.9827 107.688C95.3974 110.614 95.6416 113.396 95.3974 117.052C95.3974 117.052 94.8691 126.699 94.2269 132.854C93.6767 138.127 92.7409 141.02 92.4711 146.315C92.2966 149.739 92.4711 155.094 92.4711 155.094C92.4711 155.094 96.3561 156.153 98.909 156.264C101.431 156.375 105.347 155.679 105.347 155.679L106.517 150.412L108.273 156.264L111.785 155.679C111.785 155.679 111.502 151.035 111.199 148.071C110.708 143.247 110.327 140.548 109.444 135.78C108.847 132.563 108.374 130.786 107.688 127.587C107.002 124.387 106.725 122.568 105.932 119.393C104.951 115.464 103.006 109.444 103.006 109.444C103.006 109.444 105.783 118.808 107.103 121.149C107.664 122.144 108.329 122.653 109.444 122.905C110.854 123.223 111.768 123.144 112.955 122.319C114.157 121.484 115.032 120.585 115.881 119.393C116.36 118.722 116.467 117.637 116.467 117.052C116.467 116.467 115.653 115.068 114.711 114.126C113.769 113.183 112.747 112.796 112.37 112.37C111.993 111.944 111.576 110.029 111.785 109.444C111.994 108.858 112.305 108.194 112.955 107.688C113.875 106.972 114.746 106.84 115.882 107.103C116.995 107.36 118.223 108.858 118.223 108.858L119.393 110.614C119.393 110.614 120.37 107.723 121.149 105.932C121.964 104.057 123.49 101.25 123.49 101.25C123.49 101.25 124.489 96.7879 124.075 95.9826Z" stroke="#002F76"/>
<path d="M108.858 351.741C108.482 349.719 108.858 346.474 108.858 346.474L93.0561 339.451C93.0561 339.451 92.3405 345.243 91.3003 348.815C90.4103 351.872 88.374 356.423 88.374 356.423C88.374 356.423 94.5741 359.804 98.9087 359.935C103.679 360.08 110.614 356.423 110.614 356.423C110.614 356.423 109.216 353.661 108.858 351.741Z" fill="white" stroke="#002F76"/>
<path d="M83.6918 362.861C84.5929 359.886 88.3739 356.423 88.3739 356.423C88.3739 356.423 94.9405 360.007 99.4939 359.935C103.83 359.866 110.029 356.423 110.029 356.423C110.029 356.423 115.414 360.163 119.393 361.106C123.396 362.054 125.813 361.106 129.927 361.106C132.442 361.106 133.955 360.389 136.365 361.106C139.039 361.901 140.632 362.907 142.218 365.202C143.314 366.789 143.561 367.946 143.959 369.814L143.974 369.884C144.545 372.567 143.974 375.152 142.218 376.908C140.462 378.663 125.38 375.951 113.54 374.567C101.821 373.196 84.8623 371.64 83.6918 369.884C82.5214 368.129 82.8969 365.486 83.6918 362.861Z" fill="#002F76" stroke="#002F76"/>
<path d="M175.079 351.859C174.486 349.889 174.51 346.623 174.51 346.623L158.041 341.348C158.041 341.348 157.956 347.183 157.307 350.847C156.753 353.981 155.22 358.727 155.22 358.727C155.22 358.727 161.749 361.417 166.072 361.08C170.83 360.708 177.33 356.324 177.33 356.324C177.33 356.324 175.641 353.729 175.079 351.859Z" fill="white" stroke="#002F76"/>
<path d="M151.261 365.632C151.835 362.577 155.22 358.726 155.22 358.726C155.22 358.726 162.135 361.58 166.654 361.016C170.958 360.479 176.748 356.387 176.748 356.387C176.748 356.387 182.506 359.523 186.563 360.03C190.645 360.541 192.946 359.337 197.036 358.893C199.536 358.621 200.963 357.745 203.436 358.197C206.181 358.699 207.872 359.527 209.697 361.638C210.959 363.097 211.329 364.22 211.926 366.035L211.949 366.103C212.806 368.708 212.518 371.339 210.962 373.275C209.406 375.21 194.119 374.142 182.199 374.045C170.4 373.949 153.373 374.233 152.019 372.614C150.666 370.995 150.754 368.328 151.261 365.632Z" fill="#002F76" stroke="#002F76"/>
<path d="M128.757 190.795C126.268 189.534 122.904 186.698 122.904 186.698C122.904 186.698 118.138 193.504 115.881 198.403C112.877 204.921 111.784 215.961 111.784 215.961L107.687 269.805L87.2031 335.939L118.807 351.156L131.683 275.657L138.121 238.201L148.07 275.657L150.411 347.059L184.942 351.156C184.942 351.156 179.867 322.991 176.748 304.92C172.728 281.63 171.016 268.479 166.799 245.224C164.183 230.801 162.429 222.768 159.775 208.353C158.85 203.326 157.434 195.477 157.434 195.477L155.679 186.113C155.679 186.113 149.525 189.978 145.144 191.38C141.6 192.514 139.482 193.51 135.78 193.136C132.903 192.845 131.336 192.101 128.757 190.795Z" fill="#002F76" stroke="#002F76"/>
<path d="M128.757 98.909C127.586 97.7384 124.075 95.9827 124.075 95.9827C124.075 95.9827 124.45 98.5242 124.075 100.079C123.715 101.57 122.961 102.199 122.319 103.591C120.985 106.482 119.392 111.199 119.392 111.199C119.392 111.199 118.222 108.858 117.637 108.273C117.051 107.688 115.881 107.103 114.71 107.103C113.54 107.103 112.369 107.688 111.784 108.858C111.199 110.029 111.199 111.199 112.369 112.37C113.54 113.54 114.71 113.54 115.296 114.711C115.881 115.882 116.785 116.813 116.466 118.223C116.214 119.337 115.464 119.705 114.71 120.564C114.071 121.292 113.751 121.766 112.955 122.319C111.944 123.022 110.028 123.49 110.028 123.49L113.54 134.025C113.54 134.025 117.836 133.731 120.563 134.025C123.595 134.351 128.171 135.78 128.171 135.78L124.66 124.075C124.66 124.075 128.735 124.936 131.098 124.075C132.939 123.405 134.598 121.745 135.189 121.155L135.195 121.149C135.78 120.564 136.95 117.637 136.95 115.882C136.95 114.126 136.365 111.199 135.78 109.444C135.195 107.688 134.024 105.932 134.024 105.932C134.024 105.932 135.195 103.006 134.609 102.421C134.024 101.835 132.268 103.006 132.268 103.006C132.268 103.006 129.927 100.079 128.757 98.909Z" fill="white" stroke="#002F76" stroke-linecap="round"/>
</svg>
