<svg width="69" height="68" viewBox="0 0 69 68" fill="none" xmlns="http://www.w3.org/2000/svg">
<rect x="3.95658" y="0.526329" width="64.5491" height="63.3786" transform="rotate(3.10257 3.95658 0.526329)" fill="white" stroke="#002F76"/>
<path d="M48.98 30.0987L48.7152 35.418C46.6512 34.2306 44.2639 33.7278 41.8963 33.9817C39.5287 34.2355 37.3023 35.2331 35.5369 36.831C33.7715 38.429 32.5578 40.5453 32.0701 42.876C31.5823 45.2067 31.8456 47.6321 32.8221 49.8038L24.434 49.3863C23.0775 49.3187 21.8034 48.7151 20.8919 47.7082C19.9805 46.7012 19.5064 45.3735 19.5739 44.017L20.3377 28.6729L48.98 30.0987ZM44.2727 21.6606C45.6292 21.7281 46.9033 22.3318 47.8148 23.3387C48.7262 24.3456 49.2003 25.6734 49.1328 27.0299L49.0819 28.0528L20.4396 26.627L20.4905 25.6041C20.558 24.2476 21.1617 22.9735 22.1686 22.062C23.1755 21.1506 24.5033 20.6765 25.8598 20.744L44.2727 21.6606ZM42.0265 41.0328C42.0434 40.6937 42.1943 40.3751 42.446 40.1473C42.6978 39.9194 43.0297 39.8009 43.3688 39.8178C43.708 39.8346 44.0265 39.9855 44.2543 40.2373C44.4822 40.489 44.6007 40.821 44.5838 41.1601C44.567 41.4992 44.4161 41.8177 44.1643 42.0456C43.9126 42.2735 43.5806 42.392 43.2415 42.3751C42.9024 42.3582 42.5839 42.2073 42.356 41.9556C42.1281 41.7038 42.0096 41.3719 42.0265 41.0328ZM43.9207 49.3309C43.9072 49.6022 43.7865 49.857 43.5851 50.0393C43.3837 50.2216 43.1182 50.3164 42.8469 50.3029C42.5756 50.2894 42.3207 50.1686 42.1385 49.9673C41.9562 49.7659 41.8613 49.5003 41.8749 49.229L42.0785 45.1373C42.0921 44.866 42.2128 44.6111 42.4142 44.4289C42.6156 44.2466 42.8811 44.1517 43.1524 44.1652C43.4237 44.1788 43.6785 44.2995 43.8608 44.5009C44.0431 44.7023 44.1379 44.9678 44.1244 45.2391L43.9207 49.3309ZM33.895 44.7299C34.0166 42.2882 35.1031 39.9948 36.9156 38.3542C38.7281 36.7136 41.1181 35.8602 43.5598 35.9817C46.0015 36.1033 48.2949 37.1898 49.9355 39.0023C51.5761 40.8148 52.4295 43.2048 52.3079 45.6465C52.1864 48.0882 51.0998 50.3816 49.2874 52.0222C47.4749 53.6628 45.0849 54.5162 42.6432 54.3946C40.2015 54.2731 37.9081 53.1865 36.2675 51.3741C34.6269 49.5616 33.7735 47.1716 33.895 44.7299ZM35.9409 44.8317C35.8941 45.7721 36.033 46.7124 36.3496 47.5991C36.6662 48.4858 37.1543 49.3014 37.7861 49.9994C38.418 50.6974 39.1811 51.2642 40.0319 51.6673C40.8828 52.0704 41.8047 52.3019 42.745 52.3488C43.6854 52.3956 44.6257 52.2567 45.5124 51.9401C46.3991 51.6235 47.2147 51.1354 47.9127 50.5035C48.6107 49.8717 49.1775 49.1086 49.5806 48.2577C49.9837 47.4069 50.2152 46.485 50.2621 45.5446C50.3566 43.6455 49.6928 41.7867 48.4168 40.377C47.1408 38.9672 45.357 38.1222 43.4579 38.0276C41.5588 37.9331 39.7 38.5968 38.2903 39.8728C36.8805 41.1489 36.0355 42.9326 35.9409 44.8317Z" fill="#002F76"/>
</svg>
