<svg width="166" height="263" viewBox="0 0 166 263" fill="none" xmlns="http://www.w3.org/2000/svg">
<g clip-path="url(#clip0)">
<rect x="76.7051" y="28.0721" width="41.8902" height="41.1243" fill="white" stroke="#002F76"/>
<path d="M97.6627 44.9826C96.8576 44.9826 96.1037 45.2949 95.5329 45.8657C94.9647 46.4366 94.6497 47.1905 94.6497 47.9956C94.6497 48.8007 94.9647 49.5546 95.5329 50.1254C96.1037 50.6936 96.8576 51.0086 97.6627 51.0086C98.4678 51.0086 99.2217 50.6936 99.7926 50.1254C100.361 49.5546 100.676 48.8007 100.676 47.9956C100.676 47.1905 100.361 46.4366 99.7926 45.8657C99.5138 45.5848 99.1819 45.362 98.8163 45.2104C98.4507 45.0588 98.0585 44.9814 97.6627 44.9826V44.9826ZM108.764 51.3236L107.003 49.8185C107.087 49.3069 107.13 48.7845 107.13 48.2649C107.13 47.7452 107.087 47.2201 107.003 46.7112L108.764 45.2061C108.897 45.0922 108.993 44.9405 109.037 44.7712C109.082 44.6019 109.074 44.423 109.015 44.2583L108.991 44.1883C108.506 42.833 107.78 41.5768 106.847 40.4805L106.799 40.424C106.685 40.2908 106.535 40.1951 106.366 40.1495C106.197 40.1038 106.019 40.1103 105.854 40.1682L103.667 40.9464C102.859 40.284 101.96 39.7616 100.985 39.3981L100.563 37.1121C100.531 36.9399 100.447 36.7814 100.323 36.6578C100.199 36.5342 100.04 36.4513 99.868 36.4201L99.7953 36.4066C98.3951 36.1535 96.9196 36.1535 95.5194 36.4066L95.4467 36.4201C95.2744 36.4513 95.1156 36.5342 94.9915 36.6578C94.8675 36.7814 94.7839 36.9399 94.752 37.1121L94.3266 39.4089C93.3611 39.7753 92.4617 40.2964 91.6636 40.9517L89.4611 40.1682C89.2962 40.1099 89.1175 40.1031 88.9486 40.1488C88.7798 40.1945 88.6289 40.2905 88.516 40.424L88.4675 40.4805C87.5366 41.578 86.8107 42.8339 86.3242 44.1883L86.2999 44.2583C86.1788 44.5948 86.2784 44.9718 86.5504 45.2061L88.3329 46.7274C88.2494 47.2336 88.209 47.7506 88.209 48.2622C88.209 48.7791 88.2494 49.2961 88.3329 49.7969L86.5557 51.3183C86.4227 51.4321 86.3275 51.5838 86.2828 51.7531C86.238 51.9224 86.2459 52.1013 86.3053 52.2661L86.3296 52.3361C86.8169 53.6904 87.5358 54.9425 88.4729 56.0438L88.5213 56.1003C88.6346 56.2335 88.7855 56.3292 88.9542 56.3748C89.1229 56.4205 89.3015 56.414 89.4664 56.3561L91.669 55.5726C92.4714 56.2323 93.3653 56.7546 94.332 57.1154L94.7574 59.4122C94.7893 59.5844 94.8728 59.7429 94.9969 59.8665C95.121 59.9901 95.2798 60.073 95.4521 60.1042L95.5248 60.1177C96.9387 60.3722 98.3867 60.3722 99.8007 60.1177L99.8734 60.1042C100.046 60.073 100.204 59.9901 100.329 59.8665C100.453 59.7429 100.536 59.5844 100.568 59.4122L100.991 57.1262C101.966 56.76 102.865 56.2403 103.673 55.578L105.859 56.3561C106.024 56.4144 106.203 56.4212 106.371 56.3755C106.54 56.3298 106.691 56.2338 106.804 56.1003L106.853 56.0438C107.79 54.9371 108.509 53.6904 108.996 52.3361L109.02 52.2661C109.136 51.9322 109.036 51.5579 108.764 51.3236ZM97.6627 52.7292C95.0482 52.7292 92.9291 50.6101 92.9291 47.9956C92.9291 45.3811 95.0482 43.262 97.6627 43.262C100.277 43.262 102.396 45.3811 102.396 47.9956C102.396 50.6101 100.277 52.7292 97.6627 52.7292Z" fill="#F0831D"/>
<path d="M74.6731 56.6763C74.3348 58.1634 73.9072 60.5058 73.9072 60.5058L76.5879 62.0376C76.5879 62.0376 77.1028 61.366 77.3538 60.8887C77.9278 59.7973 78.0746 59.0575 78.1197 57.8251C78.1583 56.7684 77.7367 55.1445 77.7367 55.1445C77.7367 55.1445 78.4552 54.7035 78.8856 54.3786C79.8982 53.6139 80.8252 53.2983 81.1832 52.0809C81.3942 51.3636 81.6619 50.7406 81.1832 50.1662C80.4355 49.2689 79.917 51.5329 78.8856 52.0809C78.0503 52.5247 76.5879 52.8468 76.5879 52.8468V51.315C76.5879 51.315 75.7977 52.6758 75.439 53.6127C74.9981 54.7644 74.9467 55.4738 74.6731 56.6763Z" fill="white" stroke="#002F76"/>
<path d="M120.245 81.185C118.628 83.03 116.415 86.1634 116.415 86.1634L121.01 91.1417C121.01 91.1417 122.216 90.7575 122.925 90.3758C124.325 89.6223 124.832 88.7856 125.989 87.6952C126.912 86.8247 128.286 85.3975 128.286 85.3975C128.286 85.3975 127.978 86.3171 127.903 86.9293C127.831 87.5231 127.681 87.9056 127.903 88.461C128.139 89.0502 128.42 89.5612 129.052 89.6099C129.995 89.6824 129.598 88.232 129.818 87.3122C130.099 86.1396 130.201 84.6316 130.201 84.6316C130.216 84.1832 130.378 83.5122 130.201 83.0998C130.035 82.711 129.547 82.742 129.435 82.3339C129.311 81.8776 129.679 81.5906 129.435 81.185C129.263 80.8983 129.253 81.0696 129.052 80.8021C128.783 80.4432 128.939 80.0122 128.669 79.6532C128.469 79.3857 128.223 79.3686 127.903 79.2703C127.332 79.0944 127.351 79.2185 126.755 79.2703C125.995 79.3364 124.84 79.6532 124.84 79.6532C124.84 79.6532 126.329 77.6425 127.521 76.5897C128.484 75.7377 129.234 75.5231 130.201 74.6749C130.837 74.1171 131.3 73.9877 131.35 73.1431C131.378 72.671 131.551 73.1615 131.35 72.7602C130.901 71.8629 129.916 72.6319 129.052 73.1431C127.224 74.2263 126.422 75.1704 124.84 76.5897C122.951 78.2843 121.917 79.276 120.245 81.185Z" fill="white"/>
<path d="M116.415 86.1634L116.007 85.8749L115.773 86.2053L116.048 86.5025L116.415 86.1634ZM120.245 81.185L119.868 80.8556L119.868 80.8556L120.245 81.185ZM124.84 76.5897L124.506 76.2175L124.506 76.2175L124.84 76.5897ZM129.052 73.1431L128.798 72.7129L128.798 72.7129L129.052 73.1431ZM131.35 72.7602L130.903 72.9838L130.903 72.9838L131.35 72.7602ZM131.35 73.1431L130.851 73.1138L130.851 73.1138L131.35 73.1431ZM130.201 74.6749L129.872 74.299L129.872 74.299L130.201 74.6749ZM127.521 76.5897L127.852 76.9643L127.852 76.9643L127.521 76.5897ZM124.84 79.6532L124.438 79.3556L123.577 80.5182L124.972 80.1354L124.84 79.6532ZM126.755 79.2703L126.711 78.7722L126.711 78.7722L126.755 79.2703ZM127.903 79.2703L127.756 79.7482L127.756 79.7482L127.903 79.2703ZM128.669 79.6532L129.069 79.3532L129.069 79.3532L128.669 79.6532ZM129.435 81.185L129.007 81.4423L129.007 81.4423L129.435 81.185ZM129.435 82.3339L128.953 82.4654L128.953 82.4654L129.435 82.3339ZM130.201 83.0998L129.742 83.2967L129.742 83.2967L130.201 83.0998ZM130.201 84.6316L130.7 84.6654L130.701 84.6569L130.701 84.6484L130.201 84.6316ZM129.818 87.3122L129.332 87.1958L129.332 87.1958L129.818 87.3122ZM129.052 89.6099L129.014 90.1084L129.014 90.1084L129.052 89.6099ZM127.903 88.461L127.439 88.6467L127.439 88.6467L127.903 88.461ZM127.903 86.9293L127.407 86.8691L127.407 86.8691L127.903 86.9293ZM128.286 85.3975L128.76 85.5566L127.926 85.0507L128.286 85.3975ZM125.989 87.6952L125.646 87.3313L125.989 87.6952ZM122.925 90.3758L123.162 90.8161L123.162 90.8161L122.925 90.3758ZM121.01 91.1417L120.643 91.4808L120.859 91.7147L121.162 91.6181L121.01 91.1417ZM116.415 86.1634C116.823 86.4518 116.823 86.4518 116.823 86.4518C116.823 86.4518 116.823 86.4518 116.824 86.4517C116.824 86.4517 116.824 86.4515 116.824 86.4514C116.824 86.451 116.824 86.4505 116.825 86.4498C116.826 86.4483 116.827 86.4461 116.83 86.4432C116.834 86.4374 116.84 86.4286 116.848 86.4171C116.864 86.394 116.889 86.3597 116.92 86.3154C116.984 86.2268 117.076 86.098 117.192 85.9375C117.423 85.6165 117.749 85.1693 118.125 84.6647C118.879 83.6527 119.826 82.4214 120.621 81.5145L119.868 80.8556C119.047 81.7937 118.079 83.0514 117.323 84.0674C116.943 84.5768 116.614 85.0282 116.381 85.3524C116.264 85.5145 116.17 85.6448 116.106 85.7348C116.074 85.7798 116.049 85.8147 116.033 85.8384C116.024 85.8502 116.018 85.8593 116.013 85.8654C116.011 85.8685 116.01 85.8708 116.008 85.8724C116.008 85.8732 116.007 85.8738 116.007 85.8742C116.007 85.8744 116.007 85.8746 116.007 85.8747C116.007 85.8748 116.007 85.8748 116.007 85.8748C116.007 85.8749 116.007 85.8749 116.415 86.1634ZM120.621 81.5145C122.276 79.625 123.294 78.6478 125.174 76.9619L124.506 76.2175C122.607 77.9209 121.558 78.9271 119.868 80.8556L120.621 81.5145ZM125.174 76.9619C126.793 75.509 127.534 74.6233 129.307 73.5733L128.798 72.7129C126.913 73.8293 126.051 74.8318 124.506 76.2175L125.174 76.9619ZM129.307 73.5733C129.42 73.5066 129.534 73.436 129.643 73.3685C129.754 73.3 129.861 73.2342 129.966 73.1723C130.18 73.0464 130.364 72.9507 130.522 72.8953C130.684 72.8383 130.763 72.8442 130.792 72.852C130.795 72.853 130.84 72.8582 130.903 72.9838L131.797 72.5366C131.636 72.2135 131.389 71.9784 131.055 71.8872C130.745 71.8027 130.439 71.8646 130.191 71.9517C129.939 72.0403 129.686 72.1766 129.459 72.3105C129.343 72.3786 129.228 72.4498 129.118 72.5177C129.006 72.5865 128.901 72.6518 128.798 72.7129L129.307 73.5733ZM130.903 72.9838C130.957 73.0929 130.994 73.1557 131.019 73.1952C131.026 73.2058 131.032 73.2146 131.037 73.2219C131.039 73.2236 131.039 73.2249 131.04 73.2255C131.042 73.2279 131.039 73.2239 131.036 73.2201C131.035 73.2187 131.033 73.2161 131.031 73.2126C131.029 73.2099 131.024 73.2029 131.019 73.1938C131.016 73.1891 131.009 73.1777 131.006 73.171C131 73.1606 130.987 73.1323 130.98 73.1142C130.967 73.0784 130.946 72.9506 130.951 72.8587C131.033 72.6505 131.366 72.4398 131.544 72.4432C131.609 72.4608 131.697 72.5011 131.722 72.5168C131.736 72.5261 131.757 72.542 131.765 72.5483C131.779 72.5598 131.789 72.5696 131.792 72.5723C131.799 72.5791 131.804 72.5848 131.804 72.5849C131.807 72.5882 131.793 72.573 131.776 72.5573C131.758 72.542 131.733 72.5212 131.7 72.5005C131.64 72.4633 131.506 72.3973 131.33 72.4275C131.242 72.4428 131.164 72.4795 131.1 72.528C131.039 72.5747 130.997 72.6275 130.968 72.6721C130.94 72.7167 130.921 72.7601 130.907 72.7964C130.894 72.8333 130.885 72.8693 130.877 72.9026C130.863 72.9681 130.855 73.0392 130.851 73.1138L131.849 73.1725C131.852 73.1291 131.855 73.1122 131.855 73.1126C131.855 73.1133 131.853 73.1225 131.848 73.1373C131.842 73.1516 131.832 73.1777 131.812 73.209C131.771 73.273 131.673 73.3833 131.5 73.4131C131.34 73.4406 131.221 73.3802 131.172 73.3497C131.119 73.3172 131.085 73.28 131.087 73.2816C131.087 73.2818 131.093 73.2875 131.1 73.2944C131.103 73.2971 131.113 73.3069 131.127 73.3185C131.135 73.3248 131.156 73.3407 131.169 73.35C131.194 73.3657 131.282 73.406 131.347 73.4236C131.525 73.427 131.858 73.2162 131.94 73.008C131.945 72.9162 131.924 72.7883 131.912 72.7525C131.894 72.7069 131.873 72.6734 131.873 72.6729C131.867 72.6637 131.862 72.6567 131.86 72.6539C131.858 72.6505 131.856 72.6478 131.855 72.6463C131.853 72.6435 131.851 72.6413 131.851 72.6409C131.851 72.6405 131.851 72.6402 131.851 72.6401C131.851 72.64 131.851 72.64 131.851 72.6399C131.851 72.6399 131.851 72.6399 131.85 72.6399C131.85 72.6399 131.851 72.6401 131.851 72.6404C131.851 72.6407 131.851 72.6411 131.852 72.6415C131.855 72.6457 131.857 72.6489 131.858 72.6507C131.86 72.6545 131.843 72.6281 131.797 72.5366L130.903 72.9838ZM130.851 73.1138C130.833 73.4211 130.751 73.5501 130.637 73.6684C130.563 73.7438 130.471 73.8191 130.335 73.9241C130.206 74.0243 130.044 74.1474 129.872 74.299L130.531 75.0509C130.676 74.9235 130.81 74.8213 130.949 74.7139C131.081 74.6115 131.226 74.497 131.354 74.3647C131.643 74.0677 131.818 73.7097 131.849 73.1725L130.851 73.1138ZM129.872 74.299C129.422 74.6932 129.025 74.94 128.596 75.2061C128.166 75.4729 127.706 75.7586 127.189 76.215L127.852 76.9643C128.299 76.5688 128.696 76.3212 129.123 76.0557C129.552 75.7894 130.013 75.5049 130.531 75.0509L129.872 74.299ZM127.189 76.215C126.562 76.7691 125.872 77.5608 125.347 78.1988C125.083 78.5207 124.856 78.8091 124.695 79.017C124.615 79.1211 124.551 79.2052 124.507 79.2636C124.485 79.2927 124.468 79.3155 124.456 79.3311C124.451 79.3388 124.446 79.3449 124.443 79.349C124.442 79.351 124.44 79.3526 124.44 79.3537C124.439 79.3543 124.439 79.3547 124.439 79.355C124.438 79.3552 124.438 79.3553 124.438 79.3554C124.438 79.3555 124.438 79.3555 124.438 79.3555C124.438 79.3556 124.438 79.3556 124.84 79.6532C125.242 79.9509 125.242 79.9509 125.242 79.9509C125.242 79.9509 125.242 79.9509 125.242 79.9509C125.242 79.9508 125.242 79.9508 125.242 79.9507C125.242 79.9505 125.242 79.9502 125.242 79.9498C125.243 79.949 125.244 79.9477 125.245 79.9459C125.248 79.9424 125.252 79.9369 125.257 79.9298C125.268 79.9154 125.284 79.8939 125.305 79.866C125.347 79.8103 125.409 79.7291 125.487 79.6282C125.643 79.4263 125.863 79.1461 126.12 78.8337C126.638 78.2031 127.287 77.463 127.852 76.9643L127.189 76.215ZM124.84 79.6532C124.972 80.1354 124.972 80.1354 124.972 80.1354C124.972 80.1354 124.972 80.1354 124.972 80.1354C124.972 80.1354 124.972 80.1354 124.972 80.1354C124.972 80.1354 124.972 80.1354 124.973 80.1353C124.973 80.1352 124.974 80.135 124.975 80.1348C124.977 80.1342 124.98 80.1334 124.984 80.1323C124.992 80.1302 125.004 80.1269 125.02 80.1227C125.051 80.1143 125.098 80.102 125.156 80.0871C125.273 80.0572 125.437 80.0166 125.624 79.974C126.003 79.8875 126.454 79.7983 126.798 79.7684L126.711 78.7722C126.296 78.8083 125.789 78.9106 125.401 78.9991C125.204 79.044 125.032 79.0867 124.908 79.1183C124.847 79.1341 124.797 79.1471 124.763 79.1563C124.745 79.1609 124.732 79.1645 124.723 79.167C124.718 79.1682 124.714 79.1692 124.712 79.1699C124.711 79.1703 124.71 79.1705 124.709 79.1707C124.709 79.1708 124.708 79.1709 124.708 79.1709C124.708 79.171 124.708 79.171 124.708 79.171C124.708 79.171 124.708 79.171 124.708 79.171C124.708 79.1711 124.708 79.1711 124.84 79.6532ZM126.798 79.7684C126.966 79.7538 127.092 79.7339 127.193 79.716C127.304 79.6962 127.344 79.6872 127.393 79.6819C127.439 79.6768 127.504 79.6705 127.756 79.7482L128.051 78.7924C127.731 78.6942 127.519 78.662 127.284 78.6879C127.191 78.6981 127.089 78.7188 127.018 78.7314C126.937 78.7458 126.841 78.7609 126.711 78.7722L126.798 79.7684ZM127.756 79.7482C127.846 79.7757 127.935 79.799 127.997 79.816C128.065 79.8349 128.11 79.8487 128.147 79.8633C128.204 79.8859 128.234 79.9065 128.269 79.9532L129.069 79.3532C128.743 78.9178 128.257 78.8559 128.051 78.7924L127.756 79.7482ZM128.269 79.9532C128.317 80.0165 128.336 80.088 128.366 80.2989C128.392 80.483 128.431 80.8064 128.652 81.1021L129.452 80.5021C129.405 80.4389 129.386 80.3673 129.356 80.1564C129.329 79.9724 129.291 79.6489 129.069 79.3532L128.269 79.9532ZM128.652 81.1021C128.718 81.1901 128.784 81.2625 128.856 81.3216C128.932 81.3832 129.001 81.4175 129.018 81.4266C129.023 81.4294 128.998 81.4159 128.977 81.3945C128.965 81.3828 128.974 81.388 129.007 81.4423L129.864 80.9278C129.811 80.8387 129.754 80.7578 129.686 80.6892C129.608 80.6109 129.536 80.5698 129.491 80.5461C129.459 80.5287 129.477 80.5378 129.489 80.5473C129.498 80.5544 129.487 80.5479 129.452 80.5021L128.652 81.1021ZM129.007 81.4423C129.02 81.4642 129.034 81.4648 128.995 81.6164C128.959 81.7596 128.849 82.0848 128.953 82.4654L129.918 82.2023C129.897 82.1267 129.909 82.0802 129.964 81.8645C130.017 81.6571 130.094 81.3114 129.864 80.9278L129.007 81.4423ZM128.953 82.4654C129.067 82.8843 129.393 83.0667 129.545 83.1554C129.73 83.2642 129.734 83.2787 129.742 83.2967L130.661 82.9028C130.502 82.5321 130.178 82.3676 130.05 82.2927C129.969 82.2452 129.939 82.2242 129.922 82.2078C129.915 82.2013 129.918 82.204 129.918 82.2023L128.953 82.4654ZM129.742 83.2967C129.778 83.3823 129.794 83.5454 129.774 83.8156C129.765 83.9419 129.75 84.0693 129.735 84.2066C129.721 84.3374 129.706 84.4812 129.701 84.6147L130.701 84.6484C130.704 84.5578 130.715 84.4495 130.729 84.3155C130.743 84.1879 130.761 84.0378 130.772 83.8888C130.792 83.6083 130.801 83.2296 130.661 82.9028L129.742 83.2967ZM130.201 84.6316C129.702 84.5978 129.702 84.5977 129.702 84.5977C129.702 84.5977 129.702 84.5977 129.702 84.5977C129.702 84.5977 129.702 84.5977 129.702 84.5978C129.702 84.5979 129.702 84.5981 129.702 84.5983C129.702 84.5989 129.702 84.5998 129.702 84.6011C129.702 84.6036 129.702 84.6075 129.701 84.6128C129.7 84.6234 129.699 84.6394 129.698 84.6604C129.694 84.7023 129.69 84.764 129.683 84.842C129.669 84.998 129.648 85.2184 129.618 85.4746C129.559 85.9907 129.466 86.6381 129.332 87.1958L130.304 87.4286C130.452 86.8138 130.55 86.1208 130.612 85.5897C130.643 85.3224 130.665 85.0925 130.679 84.9291C130.686 84.8473 130.691 84.7821 130.695 84.7369C130.696 84.7144 130.698 84.6968 130.699 84.6847C130.699 84.6787 130.699 84.674 130.7 84.6708C130.7 84.6692 130.7 84.6679 130.7 84.667C130.7 84.6665 130.7 84.6662 130.7 84.6659C130.7 84.6658 130.7 84.6657 130.7 84.6656C130.7 84.6655 130.7 84.6655 130.7 84.6655C130.7 84.6654 130.7 84.6654 130.201 84.6316ZM129.332 87.1958C129.264 87.4793 129.247 87.7868 129.239 88.0535C129.229 88.3404 129.23 88.5719 129.209 88.7843C129.187 89.0043 129.15 89.0952 129.13 89.1227C129.128 89.1261 129.135 89.1167 129.149 89.1108C129.159 89.1063 129.147 89.1157 129.091 89.1114L129.014 90.1084C129.194 90.1223 129.375 90.1022 129.545 90.0287C129.719 89.9537 129.851 89.8357 129.948 89.6989C130.126 89.4462 130.179 89.1306 130.204 88.8821C130.229 88.626 130.23 88.3269 130.238 88.0855C130.246 87.8238 130.262 87.605 130.304 87.4286L129.332 87.1958ZM129.091 89.1114C128.792 89.0884 128.61 88.881 128.368 88.2754L127.439 88.6467C127.668 89.2193 128.048 90.0341 129.014 90.1084L129.091 89.1114ZM128.368 88.2754C128.208 87.8761 128.314 87.6988 128.4 86.9894L127.407 86.8691C127.349 87.3474 127.155 87.9352 127.439 88.6467L128.368 88.2754ZM128.4 86.9894C128.432 86.7237 128.519 86.3715 128.604 86.0696C128.646 85.9221 128.685 85.7929 128.714 85.7006C128.728 85.6546 128.74 85.618 128.748 85.5931C128.752 85.5807 128.756 85.5713 128.758 85.5651C128.759 85.562 128.759 85.5597 128.76 85.5583C128.76 85.5576 128.76 85.5571 128.76 85.5568C128.76 85.5566 128.76 85.5566 128.76 85.5565C128.76 85.5565 128.76 85.5565 128.76 85.5565C128.76 85.5565 128.76 85.5565 128.76 85.5565C128.76 85.5566 128.76 85.5566 128.286 85.3975C127.812 85.2383 127.812 85.2384 127.812 85.2384C127.812 85.2384 127.812 85.2385 127.812 85.2385C127.812 85.2386 127.812 85.2386 127.812 85.2387C127.812 85.2389 127.812 85.2392 127.812 85.2395C127.812 85.2401 127.812 85.2409 127.811 85.242C127.811 85.244 127.81 85.247 127.808 85.2508C127.806 85.2584 127.802 85.2693 127.798 85.2832C127.789 85.3111 127.776 85.3511 127.76 85.4008C127.729 85.5001 127.686 85.6391 127.642 85.798C127.554 86.1089 127.449 86.5227 127.407 86.8691L128.4 86.9894ZM128.286 85.3975C127.926 85.0507 127.926 85.0507 127.926 85.0507C127.926 85.0507 127.926 85.0507 127.926 85.0507C127.926 85.0507 127.926 85.0508 127.926 85.0509C127.926 85.051 127.926 85.0513 127.925 85.0516C127.925 85.0523 127.924 85.0533 127.922 85.0546C127.92 85.0573 127.916 85.0613 127.911 85.0665C127.901 85.0771 127.886 85.0927 127.866 85.1129C127.827 85.1534 127.77 85.2122 127.699 85.2856C127.556 85.4324 127.356 85.6371 127.128 85.8689C126.67 86.3337 126.1 86.9027 125.646 87.3313L126.332 88.059C126.8 87.6172 127.38 87.0374 127.84 86.5709C128.07 86.3371 128.272 86.1306 128.416 85.9826C128.488 85.9085 128.545 85.8491 128.585 85.8081C128.605 85.7876 128.62 85.7717 128.631 85.7609C128.636 85.7555 128.64 85.7514 128.642 85.7486C128.644 85.7472 128.645 85.7461 128.646 85.7454C128.646 85.745 128.646 85.7448 128.646 85.7446C128.646 85.7445 128.646 85.7444 128.647 85.7444C128.647 85.7443 128.647 85.7443 128.647 85.7443C128.647 85.7443 128.647 85.7443 128.286 85.3975ZM125.646 87.3313C125.347 87.6132 125.091 87.8777 124.857 88.1231C124.62 88.3713 124.413 88.593 124.197 88.8056C123.775 89.2215 123.336 89.5869 122.688 89.9355L123.162 90.8161C123.914 90.4112 124.428 89.9815 124.899 89.518C125.129 89.2909 125.353 89.0519 125.581 88.813C125.811 88.5714 126.052 88.3223 126.332 88.059L125.646 87.3313ZM122.688 89.9355C122.366 90.1089 121.915 90.2904 121.529 90.4327C121.339 90.5027 121.171 90.5612 121.05 90.6021C120.989 90.6225 120.941 90.6385 120.908 90.6493C120.891 90.6547 120.879 90.6588 120.87 90.6615C120.866 90.6628 120.863 90.6638 120.861 90.6645C120.86 90.6648 120.859 90.665 120.859 90.6651C120.859 90.6652 120.859 90.6653 120.859 90.6653C120.859 90.6653 120.859 90.6653 120.859 90.6653C120.859 90.6653 120.859 90.6653 120.859 90.6653C120.859 90.6653 120.859 90.6653 121.01 91.1417C121.162 91.6181 121.162 91.6181 121.162 91.6181C121.162 91.6181 121.162 91.618 121.162 91.618C121.162 91.618 121.163 91.618 121.163 91.6179C121.163 91.6179 121.163 91.6178 121.164 91.6177C121.164 91.6174 121.165 91.6171 121.167 91.6167C121.169 91.6158 121.173 91.6146 121.178 91.6131C121.187 91.61 121.201 91.6054 121.219 91.5996C121.255 91.5879 121.306 91.5709 121.37 91.5493C121.497 91.5063 121.675 91.4448 121.875 91.371C122.269 91.2258 122.775 91.0244 123.162 90.8161L122.688 89.9355ZM121.378 90.8025L116.782 85.8242L116.048 86.5025L120.643 91.4808L121.378 90.8025Z" fill="#002F76"/>
<path d="M73.5256 60.8888L70.0791 67.016L69.6961 69.3136C69.6961 69.3136 70.8522 71.336 71.2279 72.7602L71.2372 72.7952C71.5772 74.0839 71.7862 74.8761 71.6109 76.2067C71.4439 77.4735 71.1712 78.3791 70.462 79.2703C69.8658 80.0196 69.3889 80.3454 68.5473 80.8021C67.7159 81.2532 67.1904 81.4707 66.2496 81.568C65.1977 81.6768 63.569 81.185 63.569 81.185L65.8666 88.844C65.8666 88.844 62.8731 87.8992 60.8883 87.6952C59.2519 87.5269 58.2874 87.3648 56.6759 87.6952C55.4242 87.9517 53.6123 88.844 53.6123 88.844C53.6123 88.844 54.0768 92.9383 54.3782 95.3541C54.7305 98.1776 54.6806 99.5786 55.1441 102.247C55.591 104.82 55.7976 106.959 56.2929 109.523C56.8946 112.638 56.8177 114.713 58.2077 117.565C59.3236 119.854 62.0372 121.778 62.0372 121.778C62.0372 121.778 64.742 124.303 67.0155 125.224C70.2037 126.515 72.4485 126.288 75.8233 125.607C79.233 124.919 83.8652 121.778 83.8652 121.778V116.033V109.523C83.8652 109.523 87.7658 113.062 90.7583 114.502C93.8316 115.98 95.8056 116.888 99.1831 116.416C101.439 116.101 102.538 115.46 104.544 114.502C110.463 111.673 112.012 107.728 116.416 103.013C119.527 99.6821 124.075 94.2053 124.075 94.2053L116.033 86.1634L99.1831 104.162C99.1831 104.162 90.7048 98.9654 85.014 96.12C79.3233 93.2746 70.0791 89.6099 70.0791 89.6099C70.0791 89.6099 74.9246 79.1832 77.738 72.3772C78.9687 69.4002 80.8016 64.7183 80.8016 64.7183C80.8016 64.7183 78.2526 63.2834 76.5892 62.4206C75.4018 61.8047 73.5256 60.8888 73.5256 60.8888Z" fill="#CFE0EF" stroke="#002F76"/>
<path d="M61.6532 60.8886C62.4191 61.2715 62.7983 62.0508 63.1849 62.8033C63.4557 63.3302 62.8021 66.2499 62.8021 66.2499C62.8021 66.2499 61.8035 68.0867 61.2703 69.3134C60.7609 70.4853 60.1214 72.377 60.1214 72.377L59.3555 71.2282C59.3555 71.2282 58.5522 70.2479 57.8237 70.0793C57.0808 69.9074 56.5109 69.9941 55.9089 70.4623C55.4833 70.7933 55.2798 71.2282 55.143 71.6111C55.0063 71.994 55.2794 73.2471 55.526 73.5259C55.7725 73.8046 56.4412 74.0581 57.0578 74.6747C57.6745 75.2913 58.2065 76.2065 58.2066 76.5894C58.2067 76.9724 58.1366 77.6821 57.8237 78.1212C57.2679 78.901 56.6954 79.4897 55.9089 80.036C55.1321 80.5755 54.5339 80.6273 53.6113 80.4189C52.8819 80.2542 52.4467 79.9215 52.0795 79.2701C51.6175 78.4505 50.8825 76.3154 50.2989 74.5071C50.6537 75.6871 51.0407 77.0278 51.3136 78.1212C51.8321 80.1988 52.0138 81.3888 52.4625 83.4825C52.9111 85.5762 53.2212 86.7384 53.6113 88.8438C54.1893 91.9631 54.4385 93.7296 54.7602 96.8857C54.9578 98.8256 55.1431 101.864 55.1431 101.864L52.8454 102.247L51.6966 98.4175L50.9307 101.864C50.9307 101.864 48.3685 102.319 46.7182 102.247C45.0478 102.174 42.5058 101.481 42.5058 101.481C42.5058 101.481 42.3916 97.9772 42.5058 95.7369C42.6824 92.2726 43.2947 90.3791 43.6547 86.9291C44.0749 82.902 44.4206 76.5895 44.4206 76.5895C44.5804 74.1973 44.4206 72.377 44.8035 70.4623C45.1865 68.5475 45.2449 68.2962 46.3353 67.7817C47.1468 67.3987 48.633 67.7817 48.633 67.7817C48.633 67.7817 49.5581 65.5147 50.5477 64.3351C51.6436 63.0288 52.4533 62.3844 53.9943 61.6545C54.8491 61.2496 55.3721 61.1088 56.2919 60.8886C57.4645 60.6078 58.1508 60.4565 59.3555 60.5056C60.2645 60.5427 60.8873 60.5056 61.6532 60.8886Z" fill="#002F76"/>
<path d="M63.1849 62.8033C62.7983 62.0508 62.4191 61.2715 61.6532 60.8886C60.8873 60.5056 60.2645 60.5427 59.3555 60.5056C58.1508 60.4565 57.4645 60.6078 56.2919 60.8886C55.3721 61.1088 54.8491 61.2496 53.9943 61.6545C52.4533 62.3844 51.6436 63.0288 50.5477 64.3351C49.5581 65.5147 48.633 67.7817 48.633 67.7817C48.633 67.7817 47.1468 67.3987 46.3353 67.7817C45.2449 68.2962 45.1865 68.5475 44.8035 70.4623C44.4206 72.377 44.5804 74.1973 44.4206 76.5895C44.4206 76.5895 44.0749 82.902 43.6547 86.9291C43.2947 90.3791 42.6824 92.2726 42.5058 95.7369C42.3916 97.9772 42.5058 101.481 42.5058 101.481C42.5058 101.481 45.0478 102.174 46.7182 102.247C48.3685 102.319 50.9307 101.864 50.9307 101.864L51.6966 98.4175L52.8454 102.247L55.1431 101.864C55.1431 101.864 54.9578 98.8256 54.7602 96.8857C54.4385 93.7296 54.1893 91.9631 53.6113 88.8438C53.2212 86.7384 52.9111 85.5762 52.4625 83.4825C52.0138 81.3888 51.8321 80.1988 51.3136 78.1212C50.6719 75.5501 49.3989 71.6111 49.3989 71.6111C49.3989 71.6111 51.2161 77.7383 52.0795 79.2701C52.4467 79.9215 52.8819 80.2542 53.6113 80.4189C54.5339 80.6273 55.1321 80.5755 55.9089 80.036C56.6954 79.4897 57.2679 78.901 57.8237 78.1212C58.1366 77.6821 58.2067 76.9724 58.2066 76.5894C58.2065 76.2065 57.6745 75.2913 57.0578 74.6747C56.4412 74.0581 55.7725 73.8046 55.526 73.5259C55.2794 73.2471 55.0063 71.994 55.143 71.6111C55.2798 71.2282 55.4833 70.7933 55.9089 70.4623C56.5109 69.9941 57.0808 69.9074 57.8237 70.0793C58.5522 70.2479 59.3555 71.2282 59.3555 71.2282L60.1214 72.377C60.1214 72.377 60.7609 70.4853 61.2703 69.3134C61.8035 68.0867 62.8021 66.2499 62.8021 66.2499C62.8021 66.2499 63.4557 63.3302 63.1849 62.8033Z" stroke="#002F76"/>
<path d="M53.2284 230.152C52.982 228.828 53.2284 226.705 53.2284 226.705L42.8888 222.11C42.8888 222.11 42.4206 225.899 41.7399 228.237C41.1576 230.237 39.8252 233.215 39.8252 233.215C39.8252 233.215 43.882 235.427 46.7183 235.513C49.8395 235.608 54.3772 233.215 54.3772 233.215C54.3772 233.215 53.4623 231.408 53.2284 230.152Z" fill="white" stroke="#002F76"/>
<path d="M36.761 237.428C37.3505 235.481 39.8246 233.215 39.8246 233.215C39.8246 233.215 44.1212 235.56 47.1006 235.513C49.9377 235.468 53.9936 233.215 53.9936 233.215C53.9936 233.215 57.5176 235.662 60.1208 236.279C62.7402 236.899 64.3219 236.279 67.0139 236.279C68.6589 236.279 69.6494 235.81 71.2263 236.279C72.9761 236.799 74.0179 237.458 75.0558 238.96C75.7733 239.998 75.9345 240.755 76.1948 241.977L76.2046 242.023C76.5785 243.778 76.2046 245.47 75.0558 246.619C73.9069 247.767 64.0381 245.992 56.2913 245.087C48.6232 244.19 37.5268 243.172 36.761 242.023C35.9951 240.874 36.2408 239.145 36.761 237.428Z" fill="#002F76" stroke="#002F76"/>
<path d="M96.5577 230.229C96.1698 228.94 96.1854 226.802 96.1854 226.802L85.4099 223.351C85.4099 223.351 85.3538 227.169 84.9296 229.566C84.5667 231.617 83.5639 234.722 83.5639 234.722C83.5639 234.722 87.8359 236.483 90.6648 236.262C93.778 236.019 98.0307 233.15 98.0307 233.15C98.0307 233.15 96.9259 231.452 96.5577 230.229Z" fill="white" stroke="#002F76"/>
<path d="M80.9729 239.241C81.3487 237.242 83.5635 234.722 83.5635 234.722C83.5635 234.722 88.0883 236.589 91.0452 236.221C93.8609 235.869 97.6497 233.192 97.6497 233.192C97.6497 233.192 101.417 235.244 104.072 235.576C106.743 235.909 108.249 235.122 110.925 234.831C112.56 234.653 113.494 234.08 115.112 234.376C116.908 234.704 118.015 235.246 119.209 236.627C120.035 237.582 120.277 238.317 120.667 239.504L120.682 239.549C121.243 241.253 121.054 242.975 120.036 244.241C119.018 245.508 109.016 244.809 101.216 244.745C93.4962 244.682 82.3548 244.869 81.4693 243.809C80.5838 242.75 80.6413 241.005 80.9729 239.241Z" fill="#002F76" stroke="#002F76"/>
<path d="M66.2479 124.841C64.6194 124.016 62.4184 122.16 62.4184 122.16C62.4184 122.16 59.3001 126.614 57.823 129.819C55.8578 134.084 55.1424 141.308 55.1424 141.308L52.4618 176.539L39.0586 219.812L59.7378 229.769L68.1626 180.368L72.3751 155.86L78.8852 180.368L80.417 227.088L103.011 229.769C103.011 229.769 99.6904 211.34 97.6496 199.516C95.0193 184.277 93.8988 175.671 91.1395 160.455C89.4282 151.018 88.2803 145.762 86.5441 136.329C85.9388 133.041 85.0124 127.905 85.0124 127.905L83.8635 121.777C83.8635 121.777 79.8369 124.307 76.9704 125.224C74.6518 125.966 73.2654 126.617 70.8433 126.373C68.9612 126.183 67.9355 125.696 66.2479 124.841Z" fill="#002F76" stroke="#002F76"/>
<path d="M66.2485 64.7182C65.4826 63.9523 63.1849 62.8035 63.1849 62.8035C63.1849 62.8035 63.4305 64.4665 63.1849 65.4841C62.9495 66.4593 62.4564 66.8709 62.036 67.7818C61.1634 69.6732 60.1213 72.7601 60.1213 72.7601C60.1213 72.7601 59.3554 71.2283 58.9725 70.8454C58.5895 70.4624 57.8236 70.0795 57.0577 70.0795C56.2918 70.0795 55.5259 70.4624 55.143 71.2283C54.76 71.9942 54.76 72.7601 55.5259 73.526C56.2918 74.2919 57.0577 74.2919 57.4407 75.0578C57.8236 75.8237 58.4149 76.4329 58.2066 77.3555C58.0419 78.0849 57.5509 78.3253 57.0577 78.8873C56.6392 79.3642 56.4299 79.6741 55.9089 80.0361C55.2475 80.4957 53.9941 80.802 53.9941 80.802L56.2918 87.6951C56.2918 87.6951 59.1029 87.5028 60.8872 87.6951C62.871 87.9089 65.8655 88.8439 65.8655 88.8439L63.5678 81.185C63.5678 81.185 66.2346 81.748 67.7803 81.185C68.985 80.7462 70.0707 79.6605 70.457 79.2741L70.4609 79.2702C70.8439 78.8873 71.6097 76.9725 71.6097 75.8237C71.6097 74.6749 71.2268 72.7601 70.8439 71.6113C70.4609 70.4624 69.695 69.3136 69.695 69.3136C69.695 69.3136 70.4609 67.3988 70.078 67.0159C69.695 66.6329 68.5462 67.3988 68.5462 67.3988C68.5462 67.3988 67.0144 65.4841 66.2485 64.7182Z" fill="white" stroke="#002F76" stroke-linecap="round"/>
</g>
<defs>
<clipPath id="clip0">
<rect width="166" height="263" fill="white"/>
</clipPath>
</defs>
</svg>
