<svg width="78" height="77" viewBox="0 0 78 77" fill="none" xmlns="http://www.w3.org/2000/svg">
<rect x="0.591939" y="13.8341" width="64.5491" height="63.3786" transform="rotate(-11.8382 0.591939 13.8341)" fill="white" stroke="#002F76"/>
<g clip-path="url(#clip0)">
<path d="M27.1962 44.9035L27.7251 47.1456L32.8662 45.9328L27.2247 55.0577L29.1838 56.2689L34.8253 47.144L36.0381 52.2851L38.2802 51.7562L36.1646 42.7878L27.1962 44.9035Z" fill="#002F76"/>
<path d="M45.6621 42.9141L50.1463 41.8562L50.6752 44.0983L46.191 45.1562L45.6621 42.9141Z" fill="#002F76"/>
<path d="M40.1201 39.4878L44.6043 38.43L45.1332 40.6721L40.649 41.7299L40.1201 39.4878Z" fill="#002F76"/>
<path d="M43.5459 33.9458L48.0301 32.888L48.559 35.1301L44.0748 36.1879L43.5459 33.9458Z" fill="#002F76"/>
<path d="M30.0938 37.1194L34.5779 36.0616L35.1068 38.3037L30.6227 39.3615L30.0938 37.1194Z" fill="#002F76"/>
<path d="M48.4842 19.7632L23.8212 25.5812C23.227 25.7223 22.7131 26.0932 22.3919 26.6126C22.0708 27.1321 21.9687 27.7576 22.108 28.3522L25.017 40.6837L27.2591 40.1548L25.9368 34.5496L50.5998 28.7315L54.8311 46.6683L42.4996 49.5773L43.0285 51.8194L55.36 48.9104C55.9542 48.7693 56.4682 48.3983 56.7893 47.8789C57.1104 47.3595 57.2125 46.7339 57.0732 46.1394L51.2552 21.4764C51.1141 20.8822 50.7432 20.3682 50.2238 20.0471C49.7043 19.726 49.0788 19.6239 48.4842 19.7632ZM50.0709 26.4895L25.4079 32.3075L24.3501 27.8233L49.0131 22.0053L50.0709 26.4895Z" fill="#002F76"/>
</g>
<defs>
<clipPath id="clip0">
<rect width="36.8581" height="36.8581" fill="white" transform="translate(17.4229 23.5403) rotate(-13.2734)"/>
</clipPath>
</defs>
</svg>
