<svg width="1020" height="502" viewBox="0 0 1020 502" fill="none" xmlns="http://www.w3.org/2000/svg">
<g clip-path="url(#clip0)">
<rect width="1020" height="502" fill="white"/>
<path d="M0 0H1020V502H0V0Z" fill="#CFE0EF"/>
<path d="M143.439 253.523C114.369 252.52 101.519 268.378 101.519 268.378C101.519 268.378 80.7758 286.444 81.7607 314.411C82.7456 342.378 86.2305 345.445 95.6375 363.755C105.045 382.065 148.285 403.081 154.953 402.527C161.621 401.973 180.995 403.346 197.458 390.108C213.922 376.87 229.799 361.196 231.213 336.287C232.626 311.379 222.984 305.223 206.786 285.642C190.589 266.061 172.508 254.526 143.439 253.523Z" fill="white"/>
<path d="M521.488 178.88C526.445 161.36 498.701 139.104 482.674 136.42C466.647 133.736 459.574 135.275 451.149 145.105C442.724 154.934 435.524 172.117 444.368 189.749C453.211 207.381 470.799 215.505 482.063 211.765C493.328 208.025 516.532 196.4 521.488 178.88Z" fill="white"/>
<path d="M859.43 412.777C857.018 379.257 889.342 372.388 898.918 370.952C908.494 369.516 922.028 370.182 930.291 380.146C938.553 390.111 945.472 407.408 936.346 424.894C927.219 442.381 916.772 444.706 898.307 446.297C879.842 447.888 861.842 446.297 859.43 412.777Z" fill="white"/>
<path d="M306.73 489.919C302.89 472.452 311.001 460.5 323.5 453C336 445.5 356.819 445 365.395 457.425C373.972 469.849 377.918 484.473 370.344 501.847C362.771 519.222 348.107 527.028 338.847 523.149C329.588 519.27 310.571 507.386 306.73 489.919Z" fill="white"/>
</g>
<defs>
<clipPath id="clip0">
<rect width="1020" height="502" fill="white"/>
</clipPath>
</defs>
</svg>
