<svg width="572" height="547" viewBox="0 0 572 547" fill="none" xmlns="http://www.w3.org/2000/svg">
<path d="M4.91142 299.221C-19.636 138.393 130.992 26.5015 252.858 9.5822C374.724 -7.33708 428.189 4.28777 490.921 74.1873C553.654 144.087 606.225 265.387 537.068 387.939C467.911 510.491 333.562 565.362 248.576 537.813C163.59 510.263 29.4589 460.049 4.91142 299.221Z" fill="#CFE0EF"/>
<path d="M157.994 210.664L174.693 185.615C174.693 185.367 174.446 184.934 173.951 184.316C166.406 184.316 162.633 181.285 162.633 175.224C162.633 172.255 164.612 169.72 168.57 167.617C172.652 165.514 175.559 163.597 177.291 161.865C179.146 160.133 181.373 158.587 183.971 157.226C186.568 155.865 188.98 153.763 191.207 150.917C191.207 150.67 192.197 150.299 194.176 149.804C196.155 149.309 198.258 148.505 200.484 147.392C202.835 146.279 204.752 145.722 206.236 145.722C216.132 153.515 221.08 158.525 221.08 160.751C221.08 162.854 219.967 165.019 217.74 167.246C215.637 169.348 214.277 170.895 213.658 171.884C213.04 172.874 211.37 174.482 208.648 176.708C208.648 177.08 207.844 178.378 206.236 180.605L203.268 186.728C201.783 189.697 200.794 191.552 200.299 192.294L198.629 195.449C197.145 198.417 194.918 201.572 191.949 204.912C191.702 204.912 190.712 206.767 188.98 210.478L183.043 222.353C182.053 223.343 180.507 224.703 178.404 226.435C176.425 228.167 174.199 232.929 171.725 240.722L165.973 255.009C164.736 258.349 163.066 261.503 160.963 264.472C158.86 267.317 157.252 271.523 156.139 277.089L153.541 280.244C152.675 283.089 151.747 287.727 150.758 294.16C149.892 295.891 149.397 297.314 149.273 298.427C149.15 299.417 148.531 300.221 147.418 300.839C146.428 301.458 145.934 303.19 145.934 306.035C145.934 308.014 145.439 310.055 144.449 312.158L141.295 319.765C139.563 320.631 138.697 321.497 138.697 322.363C138.697 322.858 138.821 323.847 139.068 325.332V326.074C139.068 327.434 138.883 328.61 138.512 329.599C138.141 330.589 137.77 332.197 137.398 334.423C137.027 336.526 136.347 339.742 135.357 344.072C134.492 348.278 134.059 351.556 134.059 353.906L134.801 357.617C134.801 358.111 134.306 359.287 133.316 361.142L134.059 364.111C134.059 366.214 132.698 367.265 129.977 367.265C123.792 367.265 118.72 362.998 114.762 354.462C110.927 345.804 109.01 337.392 109.01 329.228L111.236 319.208V313.642C111.236 313.518 111.917 312.467 113.277 310.488L122.74 285.81L128.863 271.708C134.182 259.462 138.264 250.432 141.109 244.619C144.078 238.681 146.181 234.166 147.418 231.074L149.645 228.847C151.376 227.115 154.16 221.054 157.994 210.664Z" fill="white"/>
</svg>
