<svg width="348" height="361" viewBox="0 0 348 361" fill="none" xmlns="http://www.w3.org/2000/svg">
<path d="M338.593 224.245C369.314 123.671 307.642 17.7587 219.885 4.12155C132.128 -9.5156 71.3011 32.5647 36.1895 70.4348C1.07796 108.305 -10.8512 207.474 16.2683 257.407C43.3878 307.34 98.9753 357.475 177.114 358.742C255.252 360.008 307.871 324.818 338.593 224.245Z" fill="#CCC5EB"/>
<path d="M132 185.031L133.406 186.438C134.156 186.062 134.766 185.172 135.234 183.766C136.453 183.297 139.312 180.906 143.812 176.594L146.906 174.906C151.969 171.344 154.5 168.344 154.5 165.906L153.938 162.531L154.781 158.734C152.625 156.672 150.844 154.75 149.438 152.969C148.031 151.094 146.156 150.156 143.812 150.156C143.438 150.156 142.453 150.438 140.859 151H140.297C139.078 151 137.672 150.344 136.078 149.031L131.156 149.594L127.641 149.312C127.453 149.312 126.891 149.5 125.953 149.875C125.016 150.25 124.453 150.438 124.266 150.438L121.594 149.312H121.312L119.344 150.438C118.969 150.625 117.422 150.719 114.703 150.719L94.875 152.969C92.9062 153.25 90.4219 152.406 87.4219 150.438L86.1562 149.875C84.2812 148.938 82.3125 146.922 80.25 143.828C78.2812 140.734 77.2969 138.156 77.2969 136.094C77.2969 132.625 78.2344 130.891 80.1094 130.891C80.7656 130.891 81.2812 130.984 81.6562 131.172H82.7812C83.5312 131.172 84.9375 130.516 87 129.203C89.1562 127.797 91.9219 127.047 95.2969 126.953C98.6719 126.859 104.766 125.078 113.578 121.609C114.516 121.047 115.875 120.719 117.656 120.625C119.531 120.531 120.984 119.547 122.016 117.672C123.141 115.703 124.641 114.719 126.516 114.719H127.922C128.953 114.719 130.406 114.25 132.281 113.312H133.969C135.281 112.469 138.656 110.922 144.094 108.672L147.609 106.984C149.109 106.234 150.516 105.625 151.828 105.156L152.109 104.312C150.797 103.563 149.766 103.188 149.016 103.188L143.812 104.594H143.25L141.281 103.75H140.578C138.891 104.875 137.953 105.438 137.766 105.438C137.391 105.438 136.734 104.969 135.797 104.031H135.234C134.953 104.031 134.391 104.453 133.547 105.297C132.703 106.047 132.094 106.422 131.719 106.422C131.344 106.422 130.969 106.187 130.594 105.719C130.594 105.344 130.406 105.156 130.031 105.156L127.922 106.141C126.797 106.141 125.625 105.813 124.406 105.156C123.281 104.406 122.438 104.031 121.875 104.031C121.5 104.031 120.844 104.547 119.906 105.578C118.969 106.516 117.891 106.984 116.672 106.984C114.422 106.984 112.734 106.703 111.609 106.141C110.578 105.484 109.875 105.156 109.5 105.156C108.188 105.156 105.656 105.672 101.906 106.703C98.1562 107.641 95.8125 108.109 94.875 108.109H94.5938L92.2031 107.828C89.3906 107.828 86.25 108.578 82.7812 110.078H81.9375C80.7188 110.078 79.4531 109.516 78.1406 108.391L74.9062 106.422C74.25 105.859 73.0312 104.219 71.25 101.5C69.4688 98.6875 68.5781 96.9531 68.5781 96.2969C68.5781 94.9844 69.0938 93.625 70.125 92.2188C71.25 90.7187 72.2812 89.9688 73.2188 89.9688C73.5938 89.9688 74.2031 90.1562 75.0469 90.5312C75.9844 90.9063 76.7344 91.0938 77.2969 91.0938C78.6094 91.0938 79.6875 91 80.5312 90.8125C81.4688 90.625 82.3125 90.5312 83.0625 90.5312C87.6562 90.5312 90.5156 90.7187 91.6406 91.0938H93.1875C93.375 90.9063 93.6562 90.8125 94.0312 90.8125C94.4062 90.8125 94.875 91.2344 95.4375 92.0781C96 92.9219 96.4688 93.3438 96.8438 93.3438C100.781 93.3438 103.078 92.875 103.734 91.9375C104.484 91 105 90.5312 105.281 90.5312C105.656 90.5312 106.219 91 106.969 91.9375L108.656 91.6562C108.844 91.6562 109.125 91.75 109.5 91.9375H115.547L132 91.375L136.078 91.9375C142.734 91.9375 146.766 91.6562 148.172 91.0938C149.109 91.2812 150.516 91.375 152.391 91.375H155.062L156.469 92.2188H156.75C156.938 92.2188 157.594 91.9375 158.719 91.375H159.141C159.328 91.375 159.844 91.5156 160.688 91.7969C161.531 92.0781 163.031 92.3125 165.188 92.5C172.031 96.7188 175.453 102.109 175.453 108.672C175.453 112.516 174.328 114.813 172.078 115.562C169.922 116.312 168.375 117.156 167.438 118.094C166.5 118.938 165.656 119.453 164.906 119.641C164.25 119.828 162.938 120.484 160.969 121.609C159.094 122.734 157.594 123.625 156.469 124.281C155.344 124.844 154.406 125.359 153.656 125.828C153 126.297 152.203 126.531 151.266 126.531C151.078 126.531 150.141 126.859 148.453 127.516C146.859 128.172 145.406 128.5 144.094 128.5C142.688 128.5 141.609 129.016 140.859 130.047C140.109 130.984 138.891 131.453 137.203 131.453C136.828 131.453 136.172 131.359 135.234 131.172C134.578 132.109 133.688 132.953 132.562 133.703C133.969 134.734 136.266 135.625 139.453 136.375L144.938 138.062C145.781 138.25 147.516 139.891 150.141 142.984L152.109 143.828C154.359 145.422 155.906 147.062 156.75 148.75L159.984 151.281C161.016 151.938 161.719 153.719 162.094 156.625L163.078 164.781C163.078 165.344 162.609 166.328 161.672 167.734C162.984 171.016 163.641 172.844 163.641 173.219C163.641 173.781 163.266 174.906 162.516 176.594L162.234 177.438C162.234 179.781 161.203 182.031 159.141 184.188L158.438 185.875C157.688 188.125 156.703 189.766 155.484 190.797C154.266 191.734 153.234 192.953 152.391 194.453C151.641 195.859 150.609 196.938 149.297 197.688C147.984 198.438 146.531 199.844 144.938 201.906C143.438 203.875 141.703 204.859 139.734 204.859L138.609 205.422C136.734 208.516 135.141 210.109 133.828 210.203C132.609 210.297 131.25 210.484 129.75 210.766L126.375 211.469C125.719 211.562 125.203 212.125 124.828 213.156C124.453 214.188 123.984 214.891 123.422 215.266C119.578 216.766 116.625 218.406 114.562 220.188C112.594 221.875 110.719 222.719 108.938 222.719C108.375 222.719 107.672 222.391 106.828 221.734C105.984 221.078 105.328 220.75 104.859 220.75C104.109 220.75 102.516 221.828 100.078 223.984C97.7344 226.047 96.375 227.078 96 227.078L93.1875 226.797L86.2969 228.766C85.2656 228.766 84.1406 229.234 82.9219 230.172C81.7031 231.109 80.6719 231.578 79.8281 231.578C79.4531 231.578 78.5156 231.016 77.0156 229.891C77.0156 229.703 76.8281 229.609 76.4531 229.609C75.4219 229.609 73.6406 230.781 71.1094 233.125C68.6719 235.375 65.7188 236.5 62.25 236.5L59.1562 236.219L54.5156 236.781C53.1094 236.781 51.8438 236.5 50.7188 235.938C48.6562 237.062 47.5312 237.625 47.3438 237.625C47.1562 237.625 46.3594 237.344 44.9531 236.781C43.6406 236.219 42.375 235.844 41.1562 235.656C39.9375 235.469 38.9062 234.625 38.0625 233.125L33 223.422C31.4062 220.141 30.6094 217.328 30.6094 214.984C30.6094 212.453 31.9688 211.188 34.6875 211.188C34.875 211.188 35.5312 211.469 36.6562 212.031H36.9375C37.3125 212.031 37.9219 211.656 38.7656 210.906C39.7031 210.156 42.8438 209.781 48.1875 209.781C48.5625 209.781 49.4062 210.156 50.7188 210.906C50.7188 211.094 50.8594 211.188 51.1406 211.188L57.75 210.625C60.5625 210.625 62.9531 209.969 64.9219 208.656C66.8906 207.344 68.8594 206.594 70.8281 206.406L77.8594 205.422L80.1094 205.703L91.2188 202.75C99.2812 200.781 104.156 199.188 105.844 197.969L113.859 193.891C115.828 192.953 117.844 192.344 119.906 192.062C122.062 191.781 123.609 191.031 124.547 189.812L125.391 188.969H127.922C128.297 188.969 128.906 188.781 129.75 188.406C130.031 187.188 130.781 186.062 132 185.031Z" fill="white"/>
</svg>
