<svg width="907" height="970" viewBox="0 0 907 970" fill="none" xmlns="http://www.w3.org/2000/svg">
<g clip-path="url(#clip0)">
<rect width="907" height="970" fill="white"/>
<mask id="mask0" mask-type="alpha" maskUnits="userSpaceOnUse" x="95" y="123" width="718" height="817">
<rect x="95" y="123" width="718" height="817" fill="white"/>
</mask>
<g mask="url(#mask0)">
<path d="M259.5 281.5V235.5L296.5 213L336 235.5L259.5 281.5Z" stroke="#CDDCEA" stroke-opacity="0.38" stroke-width="3"/>
<path d="M448.5 345L411.207 323.023L411.271 279.719L448.5 258L448.5 345Z" stroke="#CDDCEA" stroke-opacity="0.38" stroke-width="3"/>
<path d="M259.947 322.583L297.496 344.71L297.431 388.311L259.947 410.179L259.947 322.583Z" stroke="#CDDCEA" stroke-opacity="0.38" stroke-width="3"/>
<path d="M70.5 300.661L33.2071 278.684L33.2714 235.38L70.5 213.661L70.5 300.661Z" stroke="#CDDCEA" stroke-opacity="0.38" stroke-width="3"/>
<path d="M374.5 258L374 344.5" stroke="#CDDCEA" stroke-opacity="0.38" stroke-width="3"/>
<path d="M261 279V322" stroke="#CDDCEA" stroke-opacity="0.38" stroke-width="3"/>
<path d="M33.5 106L109 61.5L147.5 84M147.5 84L185 61.5V149.5L147.5 171V84Z" stroke="#CDDCEA" stroke-opacity="0.38" stroke-width="3"/>
<path d="M334.5 106L220.5 170.5L185.5 150" stroke="#CDDCEA" stroke-opacity="0.38" stroke-width="3"/>
<path d="M147 127L108 150V193.5L147 171.5" stroke="#CDDCEA" stroke-opacity="0.38" stroke-width="3"/>
<path d="M32 148.5L107.5 193L67.5 216.5" stroke="#CDDCEA" stroke-opacity="0.38" stroke-width="3"/>
<path d="M108 192.5L147.5 216" stroke="#CDDCEA" stroke-opacity="0.38" stroke-width="3"/>
<path d="M147.5 215.5V170.5" stroke="#CDDCEA" stroke-opacity="0.38" stroke-width="3"/>
<path d="M185 148.5V192L147 216" stroke="#CDDCEA" stroke-opacity="0.38" stroke-width="3"/>
<path d="M185 192L222.5 216" stroke="#CDDCEA" stroke-opacity="0.38" stroke-width="3"/>
<path d="M298 81.5V213.5L259.5 191.5V149.5" stroke="#CDDCEA" stroke-opacity="0.38" stroke-width="3"/>
<path d="M221.5 170V258L185 279V236L147.5 216" stroke="#CDDCEA" stroke-opacity="0.38" stroke-width="3"/>
<path d="M221.5 214L184.5 236.5" stroke="#CDDCEA" stroke-opacity="0.38" stroke-width="3"/>
<path d="M448.5 214.5C437.167 208.333 414 195.3 412 192.5L374 214.5L412 235.5L448.5 214.5Z" stroke="#CDDCEA" stroke-opacity="0.38" stroke-width="3"/>
<path d="M448.5 214.5C437.167 208.333 414 195.3 412 192.5L374 214.5L412 235.5L448.5 214.5Z" stroke="#CDDCEA" stroke-opacity="0.38" stroke-width="3"/>
<path d="M371.889 300.698C371.693 287.798 371.665 261.216 373.121 258.099L335.292 235.807L335.668 279.222L371.889 300.698Z" stroke="#CDDCEA" stroke-opacity="0.38" stroke-width="3"/>
<path d="M410.889 279.698C410.693 266.798 410.665 240.216 412.121 237.099L374.292 214.807L374.668 258.222L410.889 279.698Z" stroke="#CDDCEA" stroke-opacity="0.38" stroke-width="3"/>
<path d="M447.889 387.698C447.693 374.798 447.665 348.216 449.121 345.099L411.292 322.807L411.668 366.222L447.889 387.698Z" stroke="#CDDCEA" stroke-opacity="0.38" stroke-width="3"/>
<path d="M447.889 213.698C447.693 200.798 447.665 174.216 449.121 171.099L411.292 148.807L411.668 192.222L447.889 213.698Z" stroke="#CDDCEA" stroke-opacity="0.38" stroke-width="3"/>
<path d="M410.889 409.698C410.693 396.798 410.665 370.216 412.121 367.099L374.292 344.807L374.668 388.222L410.889 409.698Z" stroke="#CDDCEA" stroke-opacity="0.38" stroke-width="3"/>
<path d="M333.889 409.698C333.693 396.798 333.665 370.216 335.121 367.099L297.292 344.807L297.668 388.222L333.889 409.698Z" stroke="#CDDCEA" stroke-opacity="0.38" stroke-width="3"/>
<path d="M259.5 324C248.167 317.833 225 304.8 223 302L185 324L223 345L259.5 324Z" stroke="#CDDCEA" stroke-opacity="0.38" stroke-width="3"/>
<path d="M144.5 345C133.167 338.833 110 325.8 108 323L70 345L108 366L144.5 345Z" stroke="#CDDCEA" stroke-opacity="0.38" stroke-width="3"/>
<path d="M144.5 302C133.167 295.833 110 282.8 108 280L70 302L108 323L144.5 302Z" stroke="#CDDCEA" stroke-opacity="0.38" stroke-width="3"/>
<path d="M258.5 281C247.167 274.833 224 261.8 222 259L184 281L222 302L258.5 281Z" stroke="#CDDCEA" stroke-opacity="0.38" stroke-width="3"/>
<path d="M296.5 214C285.167 207.833 262 194.8 260 192L222 214L260 235L296.5 214Z" stroke="#CDDCEA" stroke-opacity="0.38" stroke-width="3"/>
<path d="M372.5 128C361.167 121.833 338 108.8 336 106L298 128L336 149L372.5 128Z" stroke="#CDDCEA" stroke-opacity="0.38" stroke-width="3"/>
<path d="M70.9777 345.623C71.3915 358.519 70.4645 388.238 70.4645 388.238L108.665 409.888L107.557 366.485L70.9777 345.623Z" stroke="#CDDCEA" stroke-opacity="0.38" stroke-width="3"/>
<path d="M144.243 345.273C133.498 352.415 107.745 367.276 107.745 367.276L109.454 411.152L145.769 387.356L144.243 345.273Z" stroke="#CDDCEA" stroke-opacity="0.38" stroke-width="3"/>
<path d="M715.5 282.5V236.5L752.5 214L792 236.5L715.5 282.5Z" stroke="#CDDCEA" stroke-opacity="0.38" stroke-width="3"/>
<path d="M715.947 323.583L753.496 345.71L753.431 389.311L715.947 411.179L715.947 323.583Z" stroke="#CDDCEA" stroke-opacity="0.38" stroke-width="3"/>
<path d="M527.149 348.338L525.867 391.606L487.893 412.42L450.92 390.268L527.149 348.338Z" stroke="#CDDCEA" stroke-opacity="0.38" stroke-width="3"/>
<path d="M526.5 301.661L489.207 279.684L489.271 236.38L526.5 214.661L526.5 301.661Z" stroke="#CDDCEA" stroke-opacity="0.38" stroke-width="3"/>
<path d="M527 301V344" stroke="#CDDCEA" stroke-opacity="0.38" stroke-width="3"/>
<path d="M717 280V323" stroke="#CDDCEA" stroke-opacity="0.38" stroke-width="3"/>
<path d="M488 106L450 128L488 149.5L452 172" stroke="#CDDCEA" stroke-opacity="0.38" stroke-width="3"/>
<path d="M489.5 107L565 62.5L603.5 85M603.5 85L641 62.5V150.5L603.5 172V85Z" stroke="#CDDCEA" stroke-opacity="0.38" stroke-width="3"/>
<path d="M790.5 107L676.5 171.5L641.5 151" stroke="#CDDCEA" stroke-opacity="0.38" stroke-width="3"/>
<path d="M603 128L564 151V194.5L603 172.5" stroke="#CDDCEA" stroke-opacity="0.38" stroke-width="3"/>
<path d="M488 149.5L563.5 194L523.5 217.5" stroke="#CDDCEA" stroke-opacity="0.38" stroke-width="3"/>
<path d="M452 216L489.5 194V149.5V106" stroke="#CDDCEA" stroke-opacity="0.38" stroke-width="3"/>
<path d="M564 193.5L603.5 217" stroke="#CDDCEA" stroke-opacity="0.38" stroke-width="3"/>
<path d="M603.5 216.5V171.5" stroke="#CDDCEA" stroke-opacity="0.38" stroke-width="3"/>
<path d="M641 149.5V193L603 217" stroke="#CDDCEA" stroke-opacity="0.38" stroke-width="3"/>
<path d="M641 193L678.5 217" stroke="#CDDCEA" stroke-opacity="0.38" stroke-width="3"/>
<path d="M754 82.5V214.5L715.5 192.5V150.5" stroke="#CDDCEA" stroke-opacity="0.38" stroke-width="3"/>
<path d="M677.5 171V259L641 280V237L603.5 217" stroke="#CDDCEA" stroke-opacity="0.38" stroke-width="3"/>
<path d="M677.5 215L640.5 237.5" stroke="#CDDCEA" stroke-opacity="0.38" stroke-width="3"/>
<path d="M827.89 301.698C827.694 288.798 827.666 262.216 829.122 259.099L791.293 236.807L791.668 280.222L827.89 301.698Z" stroke="#CDDCEA" stroke-opacity="0.38" stroke-width="3"/>
<path d="M866.89 280.698C866.694 267.798 866.666 241.216 868.122 238.099L830.293 215.807L830.668 259.222L866.89 280.698Z" stroke="#CDDCEA" stroke-opacity="0.38" stroke-width="3"/>
<path d="M866.89 410.698C866.694 397.798 866.666 371.216 868.122 368.099L830.293 345.807L830.668 389.222L866.89 410.698Z" stroke="#CDDCEA" stroke-opacity="0.38" stroke-width="3"/>
<path d="M789.889 410.698C789.693 397.798 789.665 371.216 791.121 368.099L753.292 345.807L753.668 389.222L789.889 410.698Z" stroke="#CDDCEA" stroke-opacity="0.38" stroke-width="3"/>
<path d="M715.5 325C704.167 318.833 681 305.8 679 303L641 325L679 346L715.5 325Z" stroke="#CDDCEA" stroke-opacity="0.38" stroke-width="3"/>
<path d="M600.5 346C589.167 339.833 566 326.8 564 324L526 346L564 367L600.5 346Z" stroke="#CDDCEA" stroke-opacity="0.38" stroke-width="3"/>
<path d="M524.5 215C513.167 208.833 490 195.8 488 193L450 215L488 236L524.5 215Z" stroke="#CDDCEA" stroke-opacity="0.38" stroke-width="3"/>
<path d="M600.5 303C589.167 296.833 566 283.8 564 281L526 303L564 324L600.5 303Z" stroke="#CDDCEA" stroke-opacity="0.38" stroke-width="3"/>
<path d="M714.5 282C703.167 275.833 680 262.8 678 260L640 282L678 303L714.5 282Z" stroke="#CDDCEA" stroke-opacity="0.38" stroke-width="3"/>
<path d="M752.5 215C741.167 208.833 718 195.8 716 193L678 215L716 236L752.5 215Z" stroke="#CDDCEA" stroke-opacity="0.38" stroke-width="3"/>
<path d="M488.847 279.712C488.661 266.811 488.653 240.229 490.112 237.113L452.299 214.793L452.642 258.208L488.847 279.712Z" stroke="#CDDCEA" stroke-opacity="0.38" stroke-width="3"/>
<path d="M828.5 129C817.167 122.833 794 109.8 792 107L754 129L792 150L828.5 129Z" stroke="#CDDCEA" stroke-opacity="0.38" stroke-width="3"/>
<path d="M526.978 346.623C527.391 359.519 526.464 389.238 526.464 389.238L564.665 410.888L563.557 367.485L526.978 346.623Z" stroke="#CDDCEA" stroke-opacity="0.38" stroke-width="3"/>
<path d="M600.243 346.273C589.498 353.415 563.745 368.276 563.745 368.276L565.454 412.152L601.769 388.356L600.243 346.273Z" stroke="#CDDCEA" stroke-opacity="0.38" stroke-width="3"/>
<path d="M259.5 676.5V630.5L296.5 608L336 630.5L259.5 676.5Z" stroke="#CDDCEA" stroke-opacity="0.38" stroke-width="3"/>
<path d="M448.5 740L411.207 718.023L411.271 674.719L448.5 653L448.5 740Z" stroke="#CDDCEA" stroke-opacity="0.38" stroke-width="3"/>
<path d="M259.947 717.583L297.496 739.71L297.431 783.311L259.947 805.179L259.947 717.583Z" stroke="#CDDCEA" stroke-opacity="0.38" stroke-width="3"/>
<path d="M70.5 695.661L33.2071 673.684L33.2714 630.38L70.5 608.661L70.5 695.661Z" stroke="#CDDCEA" stroke-opacity="0.38" stroke-width="3"/>
<path d="M33.5 413L70.5 434.5L108 413" stroke="#CDDCEA" stroke-opacity="0.38" stroke-width="3"/>
<path d="M374.5 653L374 739.5" stroke="#CDDCEA" stroke-opacity="0.38" stroke-width="3"/>
<path d="M108 413.5V456.5" stroke="#CDDCEA" stroke-opacity="0.38" stroke-width="3"/>
<path d="M261 674V717" stroke="#CDDCEA" stroke-opacity="0.38" stroke-width="3"/>
<path d="M184 414V457" stroke="#CDDCEA" stroke-opacity="0.38" stroke-width="3"/>
<path d="M146 435V478" stroke="#CDDCEA" stroke-opacity="0.38" stroke-width="3"/>
<path d="M33.5 413L70.5 434.5L108 413" stroke="#CDDCEA" stroke-opacity="0.38" stroke-width="3"/>
<path d="M337 413L374 434.5L411.5 413" stroke="#CDDCEA" stroke-opacity="0.38" stroke-width="3"/>
<path d="M261 413L298 434.5L335.5 413" stroke="#CDDCEA" stroke-opacity="0.38" stroke-width="3"/>
<path d="M185 413L222 434.5L259.5 413" stroke="#CDDCEA" stroke-opacity="0.38" stroke-width="3"/>
<path d="M107 413L144 434.5L181.5 413" stroke="#CDDCEA" stroke-opacity="0.38" stroke-width="3"/>
<path d="M33.5 501L109 456.5L147.5 479M147.5 479L185 456.5V544.5L147.5 566V479Z" stroke="#CDDCEA" stroke-opacity="0.38" stroke-width="3"/>
<path d="M185 456L222 434.5V479L185 500" stroke="#CDDCEA" stroke-opacity="0.38" stroke-width="3"/>
<path d="M222.5 435L298 478.5V433.5" stroke="#CDDCEA" stroke-opacity="0.38" stroke-width="3"/>
<path d="M336 414V456L298 478.5" stroke="#CDDCEA" stroke-opacity="0.38" stroke-width="3"/>
<path d="M336.5 456.5L374.5 479V436" stroke="#CDDCEA" stroke-opacity="0.38" stroke-width="3"/>
<path d="M374.5 479.5L335 501.5L297.5 478" stroke="#CDDCEA" stroke-opacity="0.38" stroke-width="3"/>
<path d="M334.5 501L220.5 565.5L185.5 545" stroke="#CDDCEA" stroke-opacity="0.38" stroke-width="3"/>
<path d="M147 522L108 545V588.5L147 566.5" stroke="#CDDCEA" stroke-opacity="0.38" stroke-width="3"/>
<path d="M32 543.5L107.5 588L67.5 611.5" stroke="#CDDCEA" stroke-opacity="0.38" stroke-width="3"/>
<path d="M108 587.5L147.5 611" stroke="#CDDCEA" stroke-opacity="0.38" stroke-width="3"/>
<path d="M147.5 610.5V565.5" stroke="#CDDCEA" stroke-opacity="0.38" stroke-width="3"/>
<path d="M185 543.5V587L147 611" stroke="#CDDCEA" stroke-opacity="0.38" stroke-width="3"/>
<path d="M185 587L222.5 611" stroke="#CDDCEA" stroke-opacity="0.38" stroke-width="3"/>
<path d="M298 476.5V608.5L259.5 586.5V544.5" stroke="#CDDCEA" stroke-opacity="0.38" stroke-width="3"/>
<path d="M221.5 565V653L185 674V631L147.5 611" stroke="#CDDCEA" stroke-opacity="0.38" stroke-width="3"/>
<path d="M221.5 609L184.5 631.5" stroke="#CDDCEA" stroke-opacity="0.38" stroke-width="3"/>
<path d="M448.5 609.5C437.167 603.333 414 590.3 412 587.5L374 609.5L412 630.5L448.5 609.5Z" stroke="#CDDCEA" stroke-opacity="0.38" stroke-width="3"/>
<path d="M448.5 609.5C437.167 603.333 414 590.3 412 587.5L374 609.5L412 630.5L448.5 609.5Z" stroke="#CDDCEA" stroke-opacity="0.38" stroke-width="3"/>
<path d="M371.889 695.698C371.693 682.798 371.665 656.216 373.121 653.099L335.292 630.807L335.668 674.222L371.889 695.698Z" stroke="#CDDCEA" stroke-opacity="0.38" stroke-width="3"/>
<path d="M410.889 674.698C410.693 661.798 410.665 635.216 412.121 632.099L374.292 609.807L374.668 653.222L410.889 674.698Z" stroke="#CDDCEA" stroke-opacity="0.38" stroke-width="3"/>
<path d="M447.889 782.698C447.693 769.798 447.665 743.216 449.121 740.099L411.292 717.807L411.668 761.222L447.889 782.698Z" stroke="#CDDCEA" stroke-opacity="0.38" stroke-width="3"/>
<path d="M447.889 608.698C447.693 595.798 447.665 569.216 449.121 566.099L411.292 543.807L411.668 587.222L447.889 608.698Z" stroke="#CDDCEA" stroke-opacity="0.38" stroke-width="3"/>
<path d="M410.889 804.698C410.693 791.798 410.665 765.216 412.121 762.099L374.292 739.807L374.668 783.222L410.889 804.698Z" stroke="#CDDCEA" stroke-opacity="0.38" stroke-width="3"/>
<path d="M333.889 804.698C333.693 791.798 333.665 765.216 335.121 762.099L297.292 739.807L297.668 783.222L333.889 804.698Z" stroke="#CDDCEA" stroke-opacity="0.38" stroke-width="3"/>
<path d="M259.5 719C248.167 712.833 225 699.8 223 697L185 719L223 740L259.5 719Z" stroke="#CDDCEA" stroke-opacity="0.38" stroke-width="3"/>
<path d="M144.5 740C133.167 733.833 110 720.8 108 718L70 740L108 761L144.5 740Z" stroke="#CDDCEA" stroke-opacity="0.38" stroke-width="3"/>
<path d="M144.5 697C133.167 690.833 110 677.8 108 675L70 697L108 718L144.5 697Z" stroke="#CDDCEA" stroke-opacity="0.38" stroke-width="3"/>
<path d="M258.5 676C247.167 669.833 224 656.8 222 654L184 676L222 697L258.5 676Z" stroke="#CDDCEA" stroke-opacity="0.38" stroke-width="3"/>
<path d="M296.5 609C285.167 602.833 262 589.8 260 587L222 609L260 630L296.5 609Z" stroke="#CDDCEA" stroke-opacity="0.38" stroke-width="3"/>
<path d="M372.5 523C361.167 516.833 338 503.8 336 501L298 523L336 544L372.5 523Z" stroke="#CDDCEA" stroke-opacity="0.38" stroke-width="3"/>
<path d="M70.9777 740.623C71.3915 753.519 70.4645 783.238 70.4645 783.238L108.665 804.888L107.557 761.485L70.9777 740.623Z" stroke="#CDDCEA" stroke-opacity="0.38" stroke-width="3"/>
<path d="M144.243 740.273C133.498 747.415 107.745 762.276 107.745 762.276L109.454 806.152L145.769 782.356L144.243 740.273Z" stroke="#CDDCEA" stroke-opacity="0.38" stroke-width="3"/>
<path d="M715.5 677.5V631.5L752.5 609L792 631.5L715.5 677.5Z" stroke="#CDDCEA" stroke-opacity="0.38" stroke-width="3"/>
<path d="M715.947 718.583L753.496 740.71L753.431 784.311L715.947 806.179L715.947 718.583Z" stroke="#CDDCEA" stroke-opacity="0.38" stroke-width="3"/>
<path d="M527.149 743.338L525.867 786.606L487.893 807.42L450.92 785.268L527.149 743.338Z" stroke="#CDDCEA" stroke-opacity="0.38" stroke-width="3"/>
<path d="M526.5 696.661L489.207 674.684L489.271 631.38L526.5 609.661L526.5 696.661Z" stroke="#CDDCEA" stroke-opacity="0.38" stroke-width="3"/>
<path d="M489.5 414L526.5 435.5L564 414" stroke="#CDDCEA" stroke-opacity="0.38" stroke-width="3"/>
<path d="M489 414L488.5 500.5" stroke="#CDDCEA" stroke-opacity="0.38" stroke-width="3"/>
<path d="M564 414.5V457.5" stroke="#CDDCEA" stroke-opacity="0.38" stroke-width="3"/>
<path d="M527 696V739" stroke="#CDDCEA" stroke-opacity="0.38" stroke-width="3"/>
<path d="M717 675V718" stroke="#CDDCEA" stroke-opacity="0.38" stroke-width="3"/>
<path d="M640 415V458" stroke="#CDDCEA" stroke-opacity="0.38" stroke-width="3"/>
<path d="M602 436V479" stroke="#CDDCEA" stroke-opacity="0.38" stroke-width="3"/>
<path d="M526.5 435V478.5" stroke="#CDDCEA" stroke-opacity="0.38" stroke-width="3"/>
<path d="M489.5 414L526.5 435.5L564 414" stroke="#CDDCEA" stroke-opacity="0.38" stroke-width="3"/>
<path d="M793 414L830 435.5L867.5 414" stroke="#CDDCEA" stroke-opacity="0.38" stroke-width="3"/>
<path d="M717 414L754 435.5L791.5 414" stroke="#CDDCEA" stroke-opacity="0.38" stroke-width="3"/>
<path d="M641 414L678 435.5L715.5 414" stroke="#CDDCEA" stroke-opacity="0.38" stroke-width="3"/>
<path d="M563 414L600 435.5L637.5 414" stroke="#CDDCEA" stroke-opacity="0.38" stroke-width="3"/>
<path d="M488 501L450 523L488 544.5L452 567" stroke="#CDDCEA" stroke-opacity="0.38" stroke-width="3"/>
<path d="M489.5 502L565 457.5L603.5 480M603.5 480L641 457.5V545.5L603.5 567V480Z" stroke="#CDDCEA" stroke-opacity="0.38" stroke-width="3"/>
<path d="M641 457L678 435.5V480L641 501" stroke="#CDDCEA" stroke-opacity="0.38" stroke-width="3"/>
<path d="M678.5 436L754 479.5V434.5" stroke="#CDDCEA" stroke-opacity="0.38" stroke-width="3"/>
<path d="M792 415V457L754 479.5" stroke="#CDDCEA" stroke-opacity="0.38" stroke-width="3"/>
<path d="M792.5 457.5L830.5 480V437" stroke="#CDDCEA" stroke-opacity="0.38" stroke-width="3"/>
<path d="M830.5 480.5L791 502.5L753.5 479" stroke="#CDDCEA" stroke-opacity="0.38" stroke-width="3"/>
<path d="M790.5 502L676.5 566.5L641.5 546" stroke="#CDDCEA" stroke-opacity="0.38" stroke-width="3"/>
<path d="M603 523L564 546V589.5L603 567.5" stroke="#CDDCEA" stroke-opacity="0.38" stroke-width="3"/>
<path d="M488 544.5L563.5 589L523.5 612.5" stroke="#CDDCEA" stroke-opacity="0.38" stroke-width="3"/>
<path d="M452 611L489.5 589V544.5V501" stroke="#CDDCEA" stroke-opacity="0.38" stroke-width="3"/>
<path d="M564 588.5L603.5 612" stroke="#CDDCEA" stroke-opacity="0.38" stroke-width="3"/>
<path d="M603.5 611.5V566.5" stroke="#CDDCEA" stroke-opacity="0.38" stroke-width="3"/>
<path d="M641 544.5V588L603 612" stroke="#CDDCEA" stroke-opacity="0.38" stroke-width="3"/>
<path d="M641 588L678.5 612" stroke="#CDDCEA" stroke-opacity="0.38" stroke-width="3"/>
<path d="M754 477.5V609.5L715.5 587.5V545.5" stroke="#CDDCEA" stroke-opacity="0.38" stroke-width="3"/>
<path d="M677.5 566V654L641 675V632L603.5 612" stroke="#CDDCEA" stroke-opacity="0.38" stroke-width="3"/>
<path d="M677.5 610L640.5 632.5" stroke="#CDDCEA" stroke-opacity="0.38" stroke-width="3"/>
<path d="M827.89 696.698C827.694 683.798 827.666 657.216 829.122 654.099L791.293 631.807L791.668 675.222L827.89 696.698Z" stroke="#CDDCEA" stroke-opacity="0.38" stroke-width="3"/>
<path d="M866.89 675.698C866.694 662.798 866.666 636.216 868.122 633.099L830.293 610.807L830.668 654.222L866.89 675.698Z" stroke="#CDDCEA" stroke-opacity="0.38" stroke-width="3"/>
<path d="M866.89 805.698C866.694 792.798 866.666 766.216 868.122 763.099L830.293 740.807L830.668 784.222L866.89 805.698Z" stroke="#CDDCEA" stroke-opacity="0.38" stroke-width="3"/>
<path d="M789.889 805.698C789.693 792.798 789.665 766.216 791.121 763.099L753.292 740.807L753.668 784.222L789.889 805.698Z" stroke="#CDDCEA" stroke-opacity="0.38" stroke-width="3"/>
<path d="M715.5 720C704.167 713.833 681 700.8 679 698L641 720L679 741L715.5 720Z" stroke="#CDDCEA" stroke-opacity="0.38" stroke-width="3"/>
<path d="M600.5 741C589.167 734.833 566 721.8 564 719L526 741L564 762L600.5 741Z" stroke="#CDDCEA" stroke-opacity="0.38" stroke-width="3"/>
<path d="M524.5 610C513.167 603.833 490 590.8 488 588L450 610L488 631L524.5 610Z" stroke="#CDDCEA" stroke-opacity="0.38" stroke-width="3"/>
<path d="M600.5 698C589.167 691.833 566 678.8 564 676L526 698L564 719L600.5 698Z" stroke="#CDDCEA" stroke-opacity="0.38" stroke-width="3"/>
<path d="M714.5 677C703.167 670.833 680 657.8 678 655L640 677L678 698L714.5 677Z" stroke="#CDDCEA" stroke-opacity="0.38" stroke-width="3"/>
<path d="M752.5 610C741.167 603.833 718 590.8 716 588L678 610L716 631L752.5 610Z" stroke="#CDDCEA" stroke-opacity="0.38" stroke-width="3"/>
<path d="M488.847 674.712C488.661 661.811 488.653 635.229 490.112 632.113L452.299 609.793L452.642 653.208L488.847 674.712Z" stroke="#CDDCEA" stroke-opacity="0.38" stroke-width="3"/>
<path d="M828.5 524C817.167 517.833 794 504.8 792 502L754 524L792 545L828.5 524Z" stroke="#CDDCEA" stroke-opacity="0.38" stroke-width="3"/>
<path d="M526.978 741.623C527.391 754.519 526.464 784.238 526.464 784.238L564.665 805.888L563.557 762.485L526.978 741.623Z" stroke="#CDDCEA" stroke-opacity="0.38" stroke-width="3"/>
<path d="M600.243 741.273C589.498 748.415 563.745 763.276 563.745 763.276L565.454 807.152L601.769 783.356L600.243 741.273Z" stroke="#CDDCEA" stroke-opacity="0.38" stroke-width="3"/>
<path d="M33.5 809L70.5 830.5L108 809" stroke="#CDDCEA" stroke-opacity="0.38" stroke-width="3"/>
<path d="M108 809.5V852.5" stroke="#CDDCEA" stroke-opacity="0.38" stroke-width="3"/>
<path d="M184 810V853" stroke="#CDDCEA" stroke-opacity="0.38" stroke-width="3"/>
<path d="M146 831V874" stroke="#CDDCEA" stroke-opacity="0.38" stroke-width="3"/>
<path d="M33.5 809L70.5 830.5L108 809" stroke="#CDDCEA" stroke-opacity="0.38" stroke-width="3"/>
<path d="M337 809L374 830.5L411.5 809" stroke="#CDDCEA" stroke-opacity="0.38" stroke-width="3"/>
<path d="M261 809L298 830.5L335.5 809" stroke="#CDDCEA" stroke-opacity="0.38" stroke-width="3"/>
<path d="M185 809L222 830.5L259.5 809" stroke="#CDDCEA" stroke-opacity="0.38" stroke-width="3"/>
<path d="M107 809L144 830.5L181.5 809" stroke="#CDDCEA" stroke-opacity="0.38" stroke-width="3"/>
<path d="M33.5 897L109 852.5L147.5 875M147.5 875L185 852.5V940.5L147.5 962V875Z" stroke="#CDDCEA" stroke-opacity="0.38" stroke-width="3"/>
<path d="M185 852L222 830.5V875L185 896" stroke="#CDDCEA" stroke-opacity="0.38" stroke-width="3"/>
<path d="M222.5 831L298 874.5V829.5" stroke="#CDDCEA" stroke-opacity="0.38" stroke-width="3"/>
<path d="M336 810V852L298 874.5" stroke="#CDDCEA" stroke-opacity="0.38" stroke-width="3"/>
<path d="M336.5 852.5L374.5 875V832" stroke="#CDDCEA" stroke-opacity="0.38" stroke-width="3"/>
<path d="M374.5 875.5L335 897.5L297.5 874" stroke="#CDDCEA" stroke-opacity="0.38" stroke-width="3"/>
<path d="M334.5 897L220.5 961.5L185.5 941" stroke="#CDDCEA" stroke-opacity="0.38" stroke-width="3"/>
<path d="M147 918L108 941V984.5L147 962.5" stroke="#CDDCEA" stroke-opacity="0.38" stroke-width="3"/>
<path d="M32 939.5L107.5 984L67.5 1007.5" stroke="#CDDCEA" stroke-opacity="0.38" stroke-width="3"/>
<path d="M185 939.5V983L147 1007" stroke="#CDDCEA" stroke-opacity="0.38" stroke-width="3"/>
<path d="M298 872.5V1004.5L259.5 982.5V940.5" stroke="#CDDCEA" stroke-opacity="0.38" stroke-width="3"/>
<path d="M447.889 1004.7C447.693 991.798 447.665 965.216 449.121 962.099L411.292 939.807L411.668 983.222L447.889 1004.7Z" stroke="#CDDCEA" stroke-opacity="0.38" stroke-width="3"/>
<path d="M372.5 919C361.167 912.833 338 899.8 336 897L298 919L336 940L372.5 919Z" stroke="#CDDCEA" stroke-opacity="0.38" stroke-width="3"/>
<path d="M489.5 810L526.5 831.5L564 810" stroke="#CDDCEA" stroke-opacity="0.38" stroke-width="3"/>
<path d="M489 810L488.5 896.5" stroke="#CDDCEA" stroke-opacity="0.38" stroke-width="3"/>
<path d="M564 810.5V853.5" stroke="#CDDCEA" stroke-opacity="0.38" stroke-width="3"/>
<path d="M640 811V854" stroke="#CDDCEA" stroke-opacity="0.38" stroke-width="3"/>
<path d="M602 832V875" stroke="#CDDCEA" stroke-opacity="0.38" stroke-width="3"/>
<path d="M526.5 831V874.5" stroke="#CDDCEA" stroke-opacity="0.38" stroke-width="3"/>
<path d="M489.5 810L526.5 831.5L564 810" stroke="#CDDCEA" stroke-opacity="0.38" stroke-width="3"/>
<path d="M793 810L830 831.5L867.5 810" stroke="#CDDCEA" stroke-opacity="0.38" stroke-width="3"/>
<path d="M717 810L754 831.5L791.5 810" stroke="#CDDCEA" stroke-opacity="0.38" stroke-width="3"/>
<path d="M641 810L678 831.5L715.5 810" stroke="#CDDCEA" stroke-opacity="0.38" stroke-width="3"/>
<path d="M563 810L600 831.5L637.5 810" stroke="#CDDCEA" stroke-opacity="0.38" stroke-width="3"/>
<path d="M488 897L450 919L488 940.5L452 963" stroke="#CDDCEA" stroke-opacity="0.38" stroke-width="3"/>
<path d="M489.5 898L565 853.5L603.5 876M603.5 876L641 853.5V941.5L603.5 963V876Z" stroke="#CDDCEA" stroke-opacity="0.38" stroke-width="3"/>
<path d="M641 853L678 831.5V876L641 897" stroke="#CDDCEA" stroke-opacity="0.38" stroke-width="3"/>
<path d="M678.5 832L754 875.5V830.5" stroke="#CDDCEA" stroke-opacity="0.38" stroke-width="3"/>
<path d="M792 811V853L754 875.5" stroke="#CDDCEA" stroke-opacity="0.38" stroke-width="3"/>
<path d="M792.5 853.5L830.5 876V833" stroke="#CDDCEA" stroke-opacity="0.38" stroke-width="3"/>
<path d="M830.5 876.5L791 898.5L753.5 875" stroke="#CDDCEA" stroke-opacity="0.38" stroke-width="3"/>
<path d="M790.5 898L676.5 962.5L641.5 942" stroke="#CDDCEA" stroke-opacity="0.38" stroke-width="3"/>
<path d="M603 919L564 942V985.5L603 963.5" stroke="#CDDCEA" stroke-opacity="0.38" stroke-width="3"/>
<path d="M488 940.5L563.5 985L523.5 1008.5" stroke="#CDDCEA" stroke-opacity="0.38" stroke-width="3"/>
<path d="M452 1007L489.5 985V940.5V897" stroke="#CDDCEA" stroke-opacity="0.38" stroke-width="3"/>
<path d="M754 873.5V1005.5L715.5 983.5V941.5" stroke="#CDDCEA" stroke-opacity="0.38" stroke-width="3"/>
<path d="M828.5 920C817.167 913.833 794 900.8 792 898L754 920L792 941L828.5 920Z" stroke="#CDDCEA" stroke-opacity="0.38" stroke-width="3"/>
</g>
</g>
<defs>
<clipPath id="clip0">
<rect width="907" height="970" fill="white"/>
</clipPath>
</defs>
</svg>
