<svg width="376" height="342" viewBox="0 0 376 342" fill="none" xmlns="http://www.w3.org/2000/svg">
<path d="M370.049 194.656C394.864 113.418 291.242 3.00149 221.481 1.8704C151.72 0.739302 109.763 1.47301 60.7413 26.9519C11.7193 52.4308 -22.2024 145.387 22.225 227.186C66.6525 308.986 159.554 353.51 216.061 336.2C272.567 318.889 345.233 275.895 370.049 194.656Z" fill="#E0C9B3"/>
<path d="M117.516 159.391L116.25 161.5C116.156 161.688 115.078 162.25 113.016 163.188C110.953 164.125 108.281 166.375 105 169.938C101.812 173.5 99.3281 175.469 97.5469 175.844C97.3594 175.844 96.8906 176.266 96.1406 177.109C95.3906 177.859 94.5 178.469 93.4688 178.938C92.5312 179.406 91.3125 180.531 89.8125 182.312C88.3125 184 87.1406 185.078 86.2969 185.547C85.5469 186.016 84.7031 187.469 83.7656 189.906C81.6094 192.812 79.5938 194.453 77.7188 194.828C77.3438 195.203 77.1562 195.812 77.1562 196.656C77.1562 200.688 78.7969 202.703 82.0781 202.703C82.4531 202.703 82.9219 202.609 83.4844 202.422C84.0469 202.234 85.3125 202.047 87.2812 201.859C89.3438 201.578 90.75 201.156 91.5 200.594C92.25 200.031 93.6094 199.75 95.5781 199.75H96.1406L99.0938 200.031L108.797 198.062L110.766 197.219L115.406 197.5C116.344 197.5 117.469 197.125 118.781 196.375C120.188 195.531 121.266 195.016 122.016 194.828C122.203 194.641 122.391 194.547 122.578 194.547L126.375 194.828L131.297 193.141L137.906 192.297C138.844 192.109 141.938 192.016 147.188 192.016C148.125 192.016 149.812 192.203 152.25 192.578C152.438 192.766 152.859 192.859 153.516 192.859C153.891 192.859 154.969 192.719 156.75 192.438C158.625 192.156 160.312 192.016 161.812 192.016C168.188 192.016 171.656 193.469 172.219 196.375L175.312 202.703C176.531 204.953 177.141 206.453 177.141 207.203V208.469L176.438 210.438L176.719 212.406C176.719 215.312 176.062 217 174.75 217.469C173.438 217.938 172.5 218.453 171.938 219.016H171.656C168.938 219.016 166.594 217.281 164.625 213.812L162.938 214.516L160.406 213.531C159.656 214 158.484 214.234 156.891 214.234C156.328 214.234 154.969 213.438 152.812 211.844H152.25C151.688 211.844 150.891 212.031 149.859 212.406C148.828 212.781 148.125 212.969 147.75 212.969C147.562 212.969 147.141 212.828 146.484 212.547C145.922 212.266 145.453 212.125 145.078 212.125C144.328 212.125 142.312 212.688 139.031 213.812L119.484 217.047L115.969 216.484C113.438 216.484 111.141 217.188 109.078 218.594C108.141 219.25 107.484 219.578 107.109 219.578L102.469 218.453L81.7969 221.969C81.2344 222.062 80.4844 221.641 79.5469 220.703C78.7031 219.766 78.0938 219.297 77.7188 219.297C77.5312 219.484 77.2031 220.281 76.7344 221.688C76.2656 223 75.1406 223.656 73.3594 223.656C69.1406 223.656 65.9062 222.625 63.6562 220.562C63.4688 220.375 63.0469 220.281 62.3906 220.281L59.5781 219.578C59.5781 219.203 59.1094 218.266 58.1719 216.766L56.9062 212.969L55.2188 210.156C54.2812 208.562 53.8125 206.453 53.8125 203.828C53.8125 195.953 55.125 190.797 57.75 188.359C60.4688 185.828 61.9219 184.141 62.1094 183.297C64.4531 179.078 69 174.109 75.75 168.391L81.7969 162.344C81.9844 162.156 82.2656 161.969 82.6406 161.781C83.0156 161.5 84.6562 160.141 87.5625 157.703C90.5625 155.266 92.7656 153.578 94.1719 152.641C95.5781 151.703 97.5938 150.203 100.219 148.141L106.969 143.078C109.969 140.266 114.703 136.984 121.172 133.234L122.016 132.391L124.969 131.547L126.656 129.719C128.156 128.594 129.984 128.031 132.141 128.031L143.391 121.141L148.734 119.031C150.609 118.094 152.672 117.016 154.922 115.797C157.266 114.484 159.75 113.5 162.375 112.844L166.172 111.297L168.984 108.766C169.734 108.203 171.188 107.5 173.344 106.656C175.594 105.719 177.281 104.781 178.406 103.844C179.625 102.906 181.781 101.781 184.875 100.469C187.969 99.0625 189.516 97.0469 189.516 94.4219C189.516 92.6406 188.484 91.6094 186.422 91.3281C184.453 91.0469 182.906 90.5312 181.781 89.7812C180.75 89.0313 180.141 88.6562 179.953 88.6562L172.219 88.9375L170.391 88.375C168.516 87.9063 167.297 87.6719 166.734 87.6719C165.516 87.6719 164.25 87.9063 162.938 88.375C161.625 88.75 160.594 88.9375 159.844 88.9375L155.484 87.6719C154.547 87.9531 152.062 88.9375 148.031 90.625L146.766 90.9062C146.016 91.6562 145.359 92.0312 144.797 92.0312L141.141 91.75L134.672 94.7031C133.172 95.8281 131.812 96.5781 130.594 96.9531C129.469 97.3281 128.484 97.8437 127.641 98.5C126.797 99.1563 126 99.4844 125.25 99.4844L121.453 98.3594C120.891 98.3594 120.234 98.875 119.484 99.9062C118.734 100.844 118.078 101.312 117.516 101.312C113.484 101.312 111.469 97.375 111.469 89.5C111.469 86.7813 112.734 83.9688 115.266 81.0625C117.891 78.0625 120.328 76.5625 122.578 76.5625L133.547 75.0156C133.922 75.0156 135.188 75.2031 137.344 75.5781H137.906L141.703 73.6094C142.828 73.2344 143.578 73.0469 143.953 73.0469L148.312 73.3281L158.578 71.9219L170.812 73.1875C174.562 73.6562 176.953 73.9844 177.984 74.1719L180.797 74.4531C184.641 74.4531 189.047 78.2031 194.016 85.7031C194.391 86.4531 195.609 88.0938 197.672 90.625C199.828 93.1562 200.906 96.5312 200.906 100.75C200.906 102.813 199.875 105.109 197.812 107.641L197.25 109.328C197.062 109.891 195.516 112.047 192.609 115.797C189.797 119.547 186.844 121.422 183.75 121.422L180.797 121.141C179.859 121.141 179.203 121.422 178.828 121.984L168.422 128.875C166.547 130.469 164.156 131.922 161.25 133.234L159.281 134.641L156.609 135.203C156.234 135.391 155.297 136.375 153.797 138.156C152.297 139.844 151.125 140.688 150.281 140.688L146.484 140.406C145.359 140.406 143.625 141.531 141.281 143.781C139.031 145.938 136.734 147.812 134.391 149.406L132.141 151.938C131.578 152.125 130.219 152.594 128.062 153.344C126 154 124.5 154.844 123.562 155.875C122.719 156.906 121.547 157.656 120.047 158.125C118.547 158.594 117.703 159.016 117.516 159.391Z" fill="white"/>
</svg>
