<svg width="1020" height="502" viewBox="0 0 1020 502" fill="none" xmlns="http://www.w3.org/2000/svg">
<rect width="1020" height="502" fill="white"/>
<path d="M0 0H1020V502H0V0Z" fill="#F2E2D3"/>
<path d="M956.513 87.0694C959.318 79.4545 970.685 75.1248 980.836 75.2071C990.988 75.2894 996.08 80.0503 998.227 89.2777C1000.37 98.5051 996.239 100.569 991.514 106.374C986.79 112.18 970.241 113.549 962.58 110.648C954.919 107.748 953.709 94.6844 956.513 87.0694Z" fill="white"/>
<path d="M143.439 253.523C114.369 252.52 101.519 268.378 101.519 268.378C101.519 268.378 80.7758 286.444 81.7607 314.411C82.7456 342.378 86.2305 345.445 95.6375 363.755C105.045 382.065 148.285 403.081 154.953 402.527C161.621 401.973 180.995 403.346 197.458 390.108C213.922 376.87 229.799 361.196 231.213 336.287C232.626 311.379 222.984 305.223 206.786 285.642C190.589 266.061 172.508 254.526 143.439 253.523Z" fill="white"/>
<path d="M859.43 412.777C857.018 379.257 889.342 372.388 898.918 370.952C908.494 369.516 922.028 370.182 930.291 380.146C938.553 390.111 945.472 407.408 936.346 424.894C927.219 442.381 916.772 444.706 898.307 446.297C879.842 447.888 861.842 446.297 859.43 412.777Z" fill="white"/>
</svg>
