<svg width="163" height="140" viewBox="0 0 163 140" fill="none" xmlns="http://www.w3.org/2000/svg">
<path d="M160.512 69.6305C170.525 13.8434 119.086 1.08416 82.583 1.08415C46.08 1.08414 16.0363 18.1346 6.02432 37.2071C-3.9877 56.2796 1.93692 86.3191 12.6992 107.776C23.4614 129.232 75.5601 143.536 95.6648 136.861C115.769 130.186 150.499 125.418 160.512 69.6305Z" fill="#F0831D"/>
<path d="M62.771 63.9693C62.249 63.1233 61.133 61.9353 60.179 61.0713L58.577 62.0613C59.513 62.9793 60.593 64.2393 61.043 65.0853L62.771 63.9693ZM50.837 61.0893C49.757 63.8073 47.867 66.4533 45.923 68.1093C46.301 68.6313 46.913 69.7833 47.111 70.2873C47.759 69.7113 48.371 69.0273 48.983 68.2713V77.7213H51.215V65.0673C51.863 63.9693 52.421 62.8533 52.889 61.7553L50.837 61.0893ZM63.041 67.5513L62.735 65.5353L57.605 66.2013C57.479 64.6713 57.407 62.9793 57.371 61.2153H55.193C55.247 63.1053 55.355 64.8693 55.481 66.4893L51.845 66.9753L52.151 69.0453L55.697 68.5593C56.345 74.0493 57.767 77.4333 60.809 77.7213C61.817 77.7753 62.789 76.9473 63.239 73.4733C62.843 73.2573 61.889 72.7173 61.493 72.2493C61.349 74.2473 61.133 75.1473 60.719 75.1113C59.279 74.9313 58.325 72.2673 57.821 68.2713L63.041 67.5513ZM76.973 74.6973V75.7053H69.845V74.6973H76.973ZM75.605 69.8373V70.7733H69.845V69.8373H75.605ZM69.845 72.3033H77.729V68.2893H67.793V77.7753H69.845V77.2893H76.973V77.7753H79.097V73.1313H69.845V72.3033ZM80.987 62.2053H75.767C75.929 61.8993 76.073 61.5933 76.199 61.2873L74.165 60.8013C73.787 61.7373 73.175 62.6733 72.455 63.4113V62.2053H68.459C68.603 61.9173 68.747 61.6293 68.873 61.3413L66.875 60.8013C66.335 62.1693 65.309 63.5553 64.229 64.4553C64.715 64.6893 65.561 65.2653 65.975 65.6073C66.443 65.1393 66.947 64.5453 67.415 63.8793H67.703C68.063 64.4733 68.387 65.1573 68.531 65.6073L70.457 65.0673C70.331 64.7433 70.115 64.3113 69.863 63.8793H71.969C71.825 64.0053 71.663 64.1313 71.519 64.2393C71.753 64.3473 72.095 64.5093 72.419 64.6893H71.627V65.9493H65.003V69.5133H67.019V67.5513H78.485V69.5133H80.573V65.9493H73.679V64.9773C74.003 64.6533 74.345 64.2933 74.669 63.8793H75.713C76.145 64.4733 76.595 65.1753 76.793 65.6433L78.773 65.0853C78.611 64.7433 78.323 64.3113 78.017 63.8793H80.987V62.2053ZM85.289 69.8013C85.307 69.2073 85.307 68.6493 85.307 68.1093V67.6233H87.071V69.8013H85.289ZM87.071 63.5553V65.6433H85.307V63.5553H87.071ZM89.051 61.5753H83.381V68.1093C83.381 70.7373 83.309 74.3553 82.193 76.8033C82.661 76.9653 83.543 77.4693 83.921 77.7753C84.659 76.1373 85.019 73.9233 85.181 71.8173H87.071V75.3813C87.071 75.6333 86.981 75.7053 86.765 75.7053C86.549 75.7053 85.883 75.7233 85.235 75.6873C85.505 76.2273 85.757 77.1993 85.811 77.7573C86.981 77.7573 87.755 77.7033 88.313 77.3613C88.907 76.9833 89.051 76.4073 89.051 75.4173V61.5753ZM92.075 69.7653H92.183C92.723 71.4033 93.389 72.9153 94.271 74.2293C93.605 74.9853 92.885 75.6153 92.075 76.0653V69.7653ZM96.557 69.7653C96.269 70.7733 95.873 71.7273 95.387 72.5733C94.829 71.7093 94.361 70.7553 94.001 69.7653H96.557ZM97.601 67.7673L97.277 67.8393H92.075V63.5733H96.269V65.0133C96.269 65.2293 96.179 65.2833 95.891 65.3013C95.603 65.3193 94.541 65.3193 93.641 65.2653C93.893 65.7873 94.181 66.5073 94.271 67.0653C95.639 67.0653 96.665 67.0653 97.367 66.7953C98.123 66.5073 98.321 66.0033 98.321 65.0673V61.5933H90.041V77.7753H92.075V76.2993C92.471 76.6953 92.921 77.3253 93.137 77.7393C94.019 77.2173 94.811 76.5693 95.495 75.8133C96.251 76.5873 97.115 77.2533 98.051 77.7753C98.357 77.2533 98.951 76.4973 99.383 76.1013C98.393 75.6693 97.493 75.0033 96.719 74.2113C97.727 72.5913 98.465 70.6113 98.879 68.1813L97.601 67.7673ZM112.631 70.9713C112.703 70.4493 112.757 69.9093 112.811 69.3693H110.669C110.633 69.9273 110.579 70.4493 110.489 70.9713H107.861V72.7533H110.039C109.481 74.1573 108.437 75.3093 106.277 76.1013C106.727 76.4973 107.285 77.2533 107.519 77.7573C110.363 76.6413 111.641 74.8953 112.253 72.7533H114.341C114.143 74.4273 113.909 75.2013 113.657 75.4353C113.477 75.5973 113.333 75.6333 113.081 75.6333C112.793 75.6333 112.181 75.6153 111.533 75.5433C111.857 76.1013 112.091 76.9293 112.109 77.5233C112.937 77.5593 113.675 77.5413 114.125 77.4873C114.665 77.4153 115.043 77.2713 115.439 76.8573C115.961 76.2813 116.285 74.8953 116.573 71.7813C116.609 71.5293 116.645 70.9713 116.645 70.9713H112.631ZM113.423 64.5273C113.117 65.1033 112.721 65.6253 112.235 66.0573C111.641 65.6073 111.137 65.0853 110.741 64.5273H113.423ZM116.843 64.5273V62.7453H111.533C111.785 62.3313 112.001 61.9173 112.199 61.4853L110.201 60.9453C109.499 62.6013 108.167 64.2213 106.763 65.2293C107.267 65.5173 108.095 66.0933 108.509 66.4353C108.779 66.2013 109.049 65.9493 109.319 65.6613C109.697 66.2013 110.129 66.7053 110.597 67.1553C109.949 67.4973 109.193 67.7673 108.401 67.9833L108.473 67.5693L107.177 67.1373L106.889 67.2273H106.025L106.907 66.3093C106.565 66.0573 106.115 65.7873 105.593 65.5173C106.601 64.6533 107.609 63.5553 108.221 62.5473L106.853 61.6833L106.529 61.7553H100.715V63.5553H105.035C104.693 63.9513 104.297 64.3473 103.901 64.6893C103.415 64.4733 102.911 64.2753 102.479 64.1133L101.129 65.4813C102.245 65.9313 103.595 66.6153 104.603 67.2273H100.481V69.0993H102.731C102.101 70.5213 101.165 71.9253 100.175 72.8073C100.499 73.3833 100.967 74.2653 101.147 74.8773C102.011 74.0853 102.767 72.8793 103.397 71.5473V75.3993C103.397 75.6153 103.325 75.6513 103.109 75.6693C102.875 75.6693 102.155 75.6693 101.489 75.6513C101.759 76.2273 102.047 77.0913 102.101 77.6853C103.217 77.6853 104.027 77.6493 104.639 77.3073C105.269 76.9833 105.413 76.4073 105.413 75.4353V69.0993H106.367C106.205 70.0173 105.989 70.9173 105.791 71.5833L107.231 72.2493C107.555 71.4393 107.861 70.3593 108.113 69.2433C108.329 69.5313 108.509 69.8013 108.617 69.9993C109.985 69.6213 111.227 69.1353 112.289 68.4873C113.369 69.1533 114.593 69.6933 115.961 70.0353C116.249 69.4953 116.843 68.6493 117.311 68.2173C116.105 67.9833 114.989 67.6233 113.999 67.1553C114.737 66.4173 115.331 65.5533 115.799 64.5273H116.843Z" fill="white"/>
</svg>
