<svg width="159" height="137" viewBox="0 0 159 137" fill="none" xmlns="http://www.w3.org/2000/svg">
<path d="M156.381 88.0222C161.134 69.9776 162.378 24.7956 86.328 5.4404C10.2783 -13.9149 -3.01539 42.0144 2.18614 64.8641C7.38767 87.7138 9.24342 100.141 26.7409 116.167C44.2384 132.193 75.9923 141.528 103.09 133.36C130.188 125.191 151.629 106.067 156.381 88.0222Z" fill="#1262A9"/>
<path d="M28.9699 67.6699H33.8659V72.0079H35.9359V67.6699H40.9039V70.1539H42.8839V66.1039H35.9359V65.3299H41.5879V63.7099H28.2859V65.3299H33.8659V66.1039H27.0799V70.1539H28.9699V67.6699ZM29.2939 71.7019H33.1819V70.3519H29.2939V71.7019ZM33.2179 68.3539H29.6719V69.6859H33.2179V68.3539ZM28.9339 73.9879H41.0659V72.4399H28.9339V73.9879ZM36.6199 71.7019H40.6159V70.3519H36.6199V71.7019ZM36.6199 68.3539V69.6859H40.1839V68.3539H36.6199ZM37.4299 76.3639L36.6019 76.7419C36.9439 76.9759 37.3219 77.2459 37.6999 77.5339C35.8819 77.5879 34.0819 77.6059 32.4259 77.6419C32.7499 77.2459 33.1099 76.8139 33.4339 76.3639H37.4299ZM43.0999 74.7439H26.8279V76.3639H30.8599C30.6079 76.8139 30.3379 77.2639 30.0679 77.6779C29.2759 77.6779 28.5379 77.6959 27.8899 77.6959L28.0519 79.5319C31.0219 79.4419 35.3959 79.3339 39.6079 79.1719C39.9139 79.4779 40.1839 79.7479 40.3819 79.9819L42.3979 79.0459C41.6599 78.2539 40.3459 77.1919 39.1579 76.3639H43.0999V74.7439ZM60.7579 63.9439H58.7239V66.6979H56.9779V63.1339H54.9259V66.6979H53.3059V63.9439H51.3439V68.5519H60.7579V63.9439ZM50.4979 66.4999H48.6799V63.3319H46.7539V66.4999H44.8099V68.4079H50.4979V66.4999ZM47.2219 74.2039C47.2039 72.7639 46.9699 70.5859 46.5919 68.8759L45.0079 69.1819C45.3319 70.8739 45.5659 73.0699 45.5479 74.5099L47.2219 74.2039ZM49.2559 74.8159C49.6519 73.2679 50.0839 71.0359 50.4079 69.1639L48.4639 68.7679C48.3379 70.6399 47.9599 73.2499 47.5999 74.8699L48.2479 75.0319C46.8079 75.3379 45.4579 75.6259 44.4319 75.7879L44.8999 77.8939C46.6459 77.4619 48.8779 76.9219 50.9839 76.3639L50.7679 74.4739L49.2559 74.8159ZM59.1199 78.0199C59.1199 78.1639 59.0839 78.2179 58.9219 78.2179C58.8139 78.2179 58.4719 78.2179 58.1299 78.1999V74.3659H59.1199V78.0199ZM61.3159 71.3779V69.4879H50.7139V71.3779H54.6559C54.5839 71.7919 54.4939 72.2059 54.4219 72.5839H51.0919V79.8379H52.9999V74.3659H53.9179V79.6759H55.5379V74.3659H56.5099V79.6759H58.1299V78.3079C58.3459 78.7939 58.5259 79.4239 58.5979 79.9099C59.3539 79.9099 59.9479 79.8919 60.4339 79.5859C60.9199 79.2979 61.0099 78.8299 61.0099 78.0379V72.5839H56.5819L57.0679 71.3779H61.3159ZM70.6939 69.1639C71.0359 69.5239 71.3959 70.0279 71.5579 70.3879C71.6839 70.3339 71.8099 70.2619 71.9359 70.2079C71.7199 71.4859 71.2879 72.7819 70.6939 73.7179V69.1639ZM67.9219 73.6099V72.1159H68.9479V73.6099H67.9219ZM65.4919 72.1159H66.4999V73.6099H65.4739C65.4919 73.1959 65.4919 72.7999 65.4919 72.4219V72.1159ZM67.3819 66.3739C67.2199 66.8239 67.0579 67.2919 66.8779 67.6879H65.3299C65.5459 67.2739 65.7439 66.8239 65.9419 66.3739H67.3819ZM67.9219 69.2539H68.9479V70.6039H67.9219V69.2539ZM65.4919 69.2539H66.4999V70.6039H65.4919V69.2539ZM79.4059 75.0139H76.3459V73.3939H79.0459V71.5939H76.3459V69.9739H74.3119V71.5939H73.4299C73.5379 71.2159 73.6099 70.8199 73.6819 70.4419L72.0799 70.1179C73.9159 69.1099 74.5999 67.6159 74.9059 65.7439H76.9939C76.9219 67.2379 76.8319 67.8499 76.6699 68.0479C76.5439 68.2099 76.3999 68.2459 76.1839 68.2459C75.9319 68.2459 75.4459 68.2279 74.8879 68.1739C75.1579 68.6239 75.3379 69.3439 75.3739 69.9019C76.0939 69.9199 76.7959 69.9019 77.1919 69.8479C77.6419 69.7759 77.9839 69.6319 78.2899 69.2539C78.6679 68.7859 78.8299 67.5439 78.9199 64.6819C78.9379 64.4479 78.9559 63.9979 78.9559 63.9979H70.9639V65.7439H72.9799C72.7279 67.0579 72.1879 68.1019 70.6939 68.7859V67.6879H68.6779C69.0559 66.9499 69.4159 66.1219 69.6679 65.4199L68.4439 64.6639L68.1739 64.7539H66.5359C66.6799 64.3399 66.8059 63.9079 66.9139 63.4759L65.0239 63.0799C64.5379 65.1859 63.5839 67.2919 62.3599 68.6059C62.7379 68.8579 63.4039 69.3979 63.7639 69.7579V72.4219C63.7639 74.4379 63.6739 77.1199 62.4679 78.9739C62.8639 79.1539 63.6379 79.6399 63.9439 79.9279C64.7719 78.6319 65.1859 76.8859 65.3659 75.1939H68.9479V77.7859C68.9479 78.0199 68.8579 78.0919 68.6419 78.0919C68.4259 78.0919 67.7239 78.0919 67.0039 78.0559C67.2739 78.5419 67.5619 79.3519 67.6159 79.8739C68.7139 79.8739 69.4519 79.8199 70.0099 79.5139C70.5499 79.2079 70.6939 78.6679 70.6939 77.8219V74.0239C71.1439 74.2219 71.7919 74.5639 72.0979 74.7799C72.3679 74.3839 72.6019 73.9159 72.8179 73.3939H74.3119V75.0139H70.9819V76.8499H74.3119V79.8199H76.3459V76.8499H79.4059V75.0139ZM85.9759 64.9339C85.2559 64.3399 83.8159 63.5839 82.7179 63.1699L81.5479 64.7539C82.6819 65.2399 84.0859 66.0679 84.7339 66.6979L85.9759 64.9339ZM84.9859 69.7219C84.2659 69.1099 82.7719 68.4079 81.6559 68.0119L80.5219 69.6139C81.6559 70.0999 83.0779 70.8919 83.7619 71.5039L84.9859 69.7219ZM84.1939 72.5659C83.1859 74.6719 81.9079 76.9399 81.0079 78.3079L82.8799 79.6399C83.8879 77.8759 84.9319 75.8059 85.8319 73.8979L84.1939 72.5659ZM91.6819 67.8499H93.9139V71.1079H91.6279C91.6639 70.5139 91.6819 69.9379 91.6819 69.3439V67.8499ZM97.3519 73.1239V71.1079H96.0019V65.8339H91.6819V63.0979H89.5579V65.8339H86.5519V67.8499H89.5579V69.3259C89.5579 69.9199 89.5399 70.5139 89.5039 71.1079H85.6699V73.1239H89.1799C88.6579 75.1399 87.4519 76.9939 84.7159 78.4339C85.2919 78.7579 86.1199 79.4959 86.4979 79.9459C89.2519 78.4339 90.5659 76.3819 91.1599 74.1679C92.1859 76.7779 93.7159 78.7759 96.0559 79.9279C96.3799 79.3339 97.0459 78.4879 97.5499 78.0559C95.3539 77.1559 93.8239 75.3379 92.9599 73.1239H97.3519ZM115.082 67.9939V65.9419H107.972V63.0079H105.758V65.9419H98.8639V67.9939H104.012C103.814 71.8459 103.4 75.9499 98.5399 78.1999C99.0979 78.6679 99.7459 79.4239 100.052 80.0179C103.652 78.1999 105.146 75.3919 105.83 72.3499H110.78C110.528 75.6259 110.204 77.1919 109.736 77.5879C109.52 77.7859 109.268 77.8219 108.872 77.8219C108.35 77.8219 107.09 77.8219 105.848 77.6959C106.244 78.3079 106.568 79.1899 106.604 79.8019C107.81 79.8559 109.016 79.8739 109.682 79.8019C110.528 79.7299 111.086 79.5499 111.626 78.9739C112.346 78.1819 112.724 76.1659 113.048 71.2699C113.102 70.9819 113.12 70.3339 113.12 70.3339H106.172C106.262 69.5599 106.316 68.7679 106.37 67.9939H115.082ZM123.128 69.0559H127.34C127.034 69.5779 126.62 70.0459 125.99 70.4239C124.838 70.1359 123.686 69.8839 122.642 69.6859L123.128 69.0559ZM133.136 75.8419V74.0779H125.972V72.8539H124.298C125.072 72.6739 125.738 72.4579 126.314 72.2059C128.078 72.7099 129.698 73.2499 130.778 73.7179L132.056 72.2059C131.048 71.8279 129.716 71.4139 128.258 70.9999C128.87 70.4599 129.32 69.8119 129.644 69.0559H132.812V67.3819H124.406C124.622 67.0939 124.82 66.8059 125.018 66.5359L123.38 66.0499H130.616V67.0399H132.686V64.2859H126.026V63.0979H123.884V64.2859H117.278V67.0399H119.258V66.0499H122.948C122.66 66.4639 122.318 66.9139 121.976 67.3819H117.152V69.0559H120.698C120.194 69.6679 119.726 70.2439 119.294 70.7119L121.328 71.2699L121.562 70.9999C122.102 71.1079 122.678 71.2519 123.254 71.3779C121.868 71.6839 120.05 71.8819 117.62 72.0079C117.89 72.4219 118.232 73.1599 118.322 73.6639C120.572 73.5019 122.39 73.2859 123.848 72.9619V74.0779H116.846V75.8419H122.336C120.806 76.8139 118.556 77.6059 116.396 77.9839C116.846 78.3979 117.422 79.1899 117.71 79.7119C119.942 79.1719 122.192 78.1279 123.848 76.7779V79.8739H125.972V76.6699C127.682 78.0559 130.004 79.1539 132.254 79.6939C132.56 79.1539 133.154 78.3259 133.622 77.8759C131.444 77.5339 129.194 76.7779 127.61 75.8419H133.136Z" fill="white"/>
</svg>
