<svg width="170" height="131" viewBox="0 0 170 131" fill="none" xmlns="http://www.w3.org/2000/svg">
<path d="M169 63.5C169 21.9994 133.751 8.52961 100.486 2.95834C67.2198 -2.61292 24.6205 7.99999 13.2288 26.5C1.83713 45 -7.77142 76.4998 13.2289 101.5C34.2293 126.5 77.1092 134.264 100.49 126.501C123.87 118.738 169 105.001 169 63.5Z" fill="#F0831D"/>
<path d="M41.7881 71.2463H39.1514L34.0186 62.8264V71.2463H31.3818V58.4495H34.0186L39.1602 66.887V58.4495H41.7881V71.2463ZM46.7275 66.7375V71.2463H44.0908V58.4495H49.083C50.0439 58.4495 50.8877 58.6252 51.6143 58.9768C52.3467 59.3284 52.9092 59.8293 53.3018 60.4797C53.6943 61.1243 53.8906 61.8596 53.8906 62.6858C53.8906 63.9397 53.46 64.9299 52.5986 65.6565C51.7432 66.3772 50.5566 66.7375 49.0391 66.7375H46.7275ZM46.7275 64.6018H49.083C49.7803 64.6018 50.3105 64.4377 50.6738 64.1096C51.043 63.7815 51.2275 63.3127 51.2275 62.7034C51.2275 62.0764 51.043 61.5696 50.6738 61.1829C50.3047 60.7961 49.7949 60.5969 49.1445 60.5852H46.7275V64.6018ZM66.2217 65.1379C66.2217 66.3977 65.999 67.5022 65.5537 68.4514C65.1084 69.4006 64.4697 70.1331 63.6377 70.6487C62.8115 71.1643 61.8623 71.4221 60.79 71.4221C59.7295 71.4221 58.7832 71.1672 57.9512 70.6575C57.1191 70.1477 56.4746 69.4211 56.0176 68.4778C55.5605 67.5286 55.3291 66.4387 55.3232 65.2083V64.5754C55.3232 63.3157 55.5488 62.2083 56 61.2532C56.457 60.2922 57.0986 59.5569 57.9248 59.0471C58.7568 58.5315 59.7061 58.2737 60.7725 58.2737C61.8389 58.2737 62.7852 58.5315 63.6113 59.0471C64.4434 59.5569 65.085 60.2922 65.5361 61.2532C65.9932 62.2083 66.2217 63.3127 66.2217 64.5667V65.1379ZM63.5498 64.5579C63.5498 63.2161 63.3096 62.1965 62.8291 61.4993C62.3486 60.802 61.6631 60.4534 60.7725 60.4534C59.8877 60.4534 59.2051 60.7991 58.7246 61.4905C58.2441 62.176 58.001 63.1838 57.9951 64.5139V65.1379C57.9951 66.4446 58.2354 67.4583 58.7158 68.179C59.1963 68.8997 59.8877 69.26 60.79 69.26C61.6748 69.26 62.3545 68.9143 62.8291 68.2229C63.3037 67.5256 63.5439 66.512 63.5498 65.1819V64.5579ZM77.0031 69.9143H81.6471V68.3483H77.0031V67.5023H83.0871V65.8103H68.9031V67.5023H74.9151V70.7963H72.5211V68.0963H70.4691V70.7963H67.8411V72.5423H84.2031V70.7963H77.0031V69.9143ZM76.0311 63.6323C75.6711 63.4163 74.5371 62.8403 73.7631 62.4443H76.0131V60.6263C76.3911 61.0043 76.8231 61.4903 77.0211 61.7783C77.3091 61.5263 77.5611 61.2383 77.8311 60.9323C78.1191 61.4543 78.4611 61.9943 78.8751 62.4983C78.0291 63.1643 76.9851 63.6683 75.7251 64.0283L76.0311 63.6323ZM70.0371 60.2123H71.2071V61.1843H70.0371V60.2123ZM74.2491 60.2123V61.1843H73.0791V60.2123H74.2491ZM80.8911 59.5103C80.6931 60.1583 80.4051 60.7523 80.0451 61.2563C79.5591 60.6983 79.1811 60.1043 78.8931 59.5103H80.8911ZM84.1131 59.5103V57.8183H79.6311C79.8111 57.3683 79.9731 56.9183 80.1171 56.4503L78.2091 56.0183C77.7951 57.5303 77.0211 58.9523 76.0131 59.9423V58.9523H73.0791V58.3403H76.2651V56.9183H73.0791V56.0003H71.2071V56.9183H67.9851V58.3403H71.2071V58.9523H68.3811V62.4443H70.4511C69.6591 63.1463 68.5611 63.8123 67.6251 64.1903C67.9851 64.5143 68.5431 65.1083 68.8131 65.5223C69.5871 65.1083 70.4691 64.4423 71.2071 63.7223V65.4323H73.0791V63.5783C73.7811 64.0463 74.5731 64.6043 75.0051 64.9463L75.6891 64.0643C76.0671 64.4243 76.6611 65.1623 76.8771 65.5763C78.1551 65.1263 79.2531 64.5503 80.1531 63.8123C80.9991 64.5503 82.0431 65.1623 83.2491 65.5763C83.5011 65.0723 84.0231 64.2983 84.4371 63.9203C83.2491 63.6143 82.2591 63.1283 81.4311 62.5163C82.0791 61.6883 82.5651 60.6983 82.9251 59.5103H84.1131ZM97.5771 67.3403V70.2743H90.4671V67.3403H97.5771ZM88.3611 72.8303H90.4671V72.1643H97.5771V72.8303H99.7731V65.4503H88.3611V72.8303ZM90.3591 61.7783C91.8351 60.6083 93.0951 59.3303 93.9411 58.1243C94.8051 59.3123 96.1371 60.6083 97.6311 61.7783H90.3591ZM92.7351 56.0183C91.3851 58.2143 88.5051 60.9323 85.4091 62.4263C85.8771 62.8763 86.4711 63.6503 86.7591 64.1723C87.7131 63.6503 88.6671 63.0563 89.5491 62.4083V63.6683H98.5131V62.4263C99.4131 63.0743 100.349 63.6683 101.267 64.1363C101.645 63.4703 102.131 62.7683 102.653 62.2103C99.7911 61.0583 96.8751 58.7723 94.9491 56.0183H92.7351ZM120.185 64.6943H113.111V59.2403H119.141V57.1163H104.813V59.2403H110.879V64.6943H103.877V66.8543H110.879V72.8123H113.111V66.8543H120.185V64.6943ZM105.911 60.3923C106.487 61.5983 107.045 63.1643 107.225 64.1363L109.313 63.4883C109.115 62.4803 108.467 60.9683 107.873 59.8163L105.911 60.3923ZM116.423 64.1003C117.035 63.1823 117.755 61.7243 118.403 60.3383L116.117 59.7623C115.775 60.9323 115.127 62.5163 114.551 63.5603L116.423 64.1003ZM133.685 66.9083V70.0223H126.197V66.9083H133.685ZM124.001 72.7943H126.197V72.0743H133.685V72.7763H135.989V64.8743H124.001V72.7943ZM131.831 59.0603C132.389 59.5463 132.983 60.0863 133.559 60.6623C131.489 60.7523 129.401 60.8423 127.457 60.9143C128.321 59.6003 129.221 58.0883 129.977 56.6663L127.511 55.8743C126.899 57.4583 125.873 59.4383 124.865 61.0043C123.857 61.0223 122.921 61.0583 122.093 61.0763L122.219 63.2363C125.567 63.1103 130.589 62.9123 135.341 62.6603C135.827 63.2543 136.223 63.8123 136.493 64.2983L138.347 62.8763C137.429 61.3283 135.287 59.2583 133.505 57.8003L131.831 59.0603Z" fill="white"/>
</svg>
