<svg width="150" height="132" viewBox="0 0 150 132" fill="none" xmlns="http://www.w3.org/2000/svg">
<path d="M144.9 92.2584C157.578 65.8992 141.802 13.2301 110.632 6.81525C79.4621 0.400361 45.7051 -7.28102 21.9814 18.4201C-1.74228 44.1213 -2.95146 67.3757 7.08191 92.2584C17.1153 117.141 53.1077 130.537 83.8132 130.537C114.519 130.537 132.223 118.618 144.9 92.2584Z" fill="#F0831D"/>
<path d="M35.3926 71.1783H32.7559L27.623 62.7584V71.1783H24.9863V58.3815H27.623L32.7646 66.819V58.3815H35.3926V71.1783ZM40.332 66.6696V71.1783H37.6953V58.3815H42.6875C43.6484 58.3815 44.4922 58.5573 45.2188 58.9088C45.9512 59.2604 46.5137 59.7614 46.9062 60.4117C47.2988 61.0563 47.4951 61.7916 47.4951 62.6178C47.4951 63.8717 47.0645 64.8619 46.2031 65.5885C45.3477 66.3092 44.1611 66.6696 42.6436 66.6696H40.332ZM40.332 64.5338H42.6875C43.3848 64.5338 43.915 64.3698 44.2783 64.0416C44.6475 63.7135 44.832 63.2448 44.832 62.6354C44.832 62.0084 44.6475 61.5016 44.2783 61.1149C43.9092 60.7281 43.3994 60.5289 42.749 60.5172H40.332V64.5338ZM59.8262 65.0699C59.8262 66.3297 59.6035 67.4342 59.1582 68.3834C58.7129 69.3326 58.0742 70.0651 57.2422 70.5807C56.416 71.0963 55.4668 71.3541 54.3945 71.3541C53.334 71.3541 52.3877 71.0992 51.5557 70.5895C50.7236 70.0797 50.0791 69.3531 49.6221 68.4098C49.165 67.4606 48.9336 66.3707 48.9277 65.1403V64.5074C48.9277 63.2477 49.1533 62.1403 49.6045 61.1852C50.0615 60.2242 50.7031 59.4889 51.5293 58.9791C52.3613 58.4635 53.3105 58.2057 54.377 58.2057C55.4434 58.2057 56.3896 58.4635 57.2158 58.9791C58.0479 59.4889 58.6895 60.2242 59.1406 61.1852C59.5977 62.1403 59.8262 63.2448 59.8262 64.4987V65.0699ZM57.1543 64.4899C57.1543 63.1481 56.9141 62.1285 56.4336 61.4313C55.9531 60.734 55.2676 60.3854 54.377 60.3854C53.4922 60.3854 52.8096 60.7311 52.3291 61.4225C51.8486 62.108 51.6055 63.1158 51.5996 64.4459V65.0699C51.5996 66.3766 51.8398 67.3903 52.3203 68.111C52.8008 68.8317 53.4922 69.192 54.3945 69.192C55.2793 69.192 55.959 68.8463 56.4336 68.1549C56.9082 67.4576 57.1484 66.444 57.1543 65.1139V64.4899ZM67.1876 56.4903H62.0576V58.1103H67.1876V56.4903ZM67.7096 58.9023H61.1936V60.5943H67.7096V58.9023ZM67.2416 61.4043H62.0036V63.0423H67.2416V61.4043ZM62.0036 65.4723H67.2416V63.8703H62.0036V65.4723ZM65.4776 70.1163H63.7136V68.0463H65.4776V70.1163ZM70.3556 61.0983H71.8676V62.2503H70.3556V61.0983ZM70.3556 58.2903H71.8676V59.4603H70.3556V58.2903ZM75.3056 59.4603H73.7216V58.2903H75.3056V59.4603ZM75.3056 62.2503H73.7216V61.0983H75.3056V62.2503ZM77.6816 66.8763V64.9863H73.8476V63.9423H77.2856V56.6163H68.4476V63.9423H71.7596V64.9863H67.9256V66.8763H70.8776C69.9956 68.2803 68.6456 69.5943 67.2596 70.3503V66.3543H61.9496V72.4923H63.7136V71.7903H67.2596V70.4943C67.7096 70.8903 68.3036 71.5923 68.6096 72.0603C69.7796 71.3043 70.8776 70.1343 71.7596 68.8023V72.7263H73.8476V68.6223C74.7116 69.9543 75.7736 71.1963 76.7996 71.9883C77.1236 71.4843 77.7716 70.7283 78.2396 70.3683C76.9796 69.5943 75.6116 68.2443 74.7116 66.8763H77.6816ZM93.0356 60.8823H88.8416V58.3983H93.0356V60.8823ZM95.1236 56.5983H86.8616V62.6823H95.1236V56.5983ZM86.3396 65.8503C85.9976 65.4543 84.5216 63.8883 84.0356 63.4923V62.9703H85.9616V60.9723H84.0356V58.4343C84.8096 58.2363 85.5296 58.0023 86.1776 57.7503L84.7556 56.1123C83.3696 56.7423 81.1556 57.2643 79.1756 57.6063C79.4096 58.0383 79.6616 58.7583 79.7696 59.2443C80.4716 59.1543 81.2096 59.0283 81.9656 58.8843V60.9723H79.3916V62.9703H81.6776C81.0116 64.7163 80.0216 66.6243 79.0136 67.7943C79.3556 68.3343 79.8056 69.2163 80.0036 69.8283C80.7056 68.9283 81.3896 67.6503 81.9656 66.2643V72.7263H84.0356V65.7063C84.4676 66.3543 84.8996 67.0563 85.1156 67.5243L86.3396 65.8503ZM91.9916 70.4763V68.8923H95.1776V67.0923H91.9916V65.5983H95.6096V63.7623H86.2856V65.5983H89.8676V67.0923H86.7176V68.8923H89.8676V70.4763H85.5836V72.3483H95.9876V70.4763H91.9916ZM102.846 56.4903H98.0756V58.1103H102.846V56.4903ZM103.422 58.9743H97.1936V60.6663H103.422V58.9743ZM102.9 61.5483H97.9676V63.1503H102.9V61.5483ZM97.9676 65.6703H102.9V64.0503H97.9676V65.6703ZM101.172 68.2803V70.3323H99.6776V68.2803H101.172ZM102.954 66.5883H97.9136V72.7263H99.6776V72.0243H102.954V66.5883ZM109.56 68.4243V67.5783H111.234V68.4243H109.56ZM106.104 67.5783H107.796V68.4243H106.104V67.5783ZM107.796 65.4183V66.2643H106.104V65.4183H107.796ZM111.234 65.4183V66.2643H109.56V65.4183H111.234ZM107.688 60.9003H109.776V61.6743H107.688V60.9003ZM107.688 58.7043H109.776V59.4243H107.688V58.7043ZM114.078 68.4243H113.178V63.9423H109.56V63.2943H114.042V61.6743H111.702V60.9003H113.34V59.4243H111.702V58.7043H113.718V57.1923H111.702V55.9323H109.776V57.1923H107.688V55.9323H105.78V57.1923H103.908V58.7043H105.78V59.4243H104.232V60.9003H105.78V61.6743H103.44V63.2943H107.796V63.9423H104.304V68.4243H103.404V70.1163H104.304V72.7443H106.104V70.1163H111.234V70.8363C111.234 71.0523 111.162 71.1063 110.928 71.1243C110.712 71.1243 109.92 71.1243 109.218 71.0883C109.434 71.5563 109.65 72.2403 109.704 72.7443C110.91 72.7443 111.792 72.7263 112.386 72.4563C112.998 72.1863 113.178 71.7543 113.178 70.8543V70.1163H114.078V68.4243ZM126.138 68.6943H130.926V66.8403H126.138V65.3283C126.516 65.6343 126.894 65.9763 127.092 66.2103C127.74 65.7063 128.28 65.0763 128.712 64.3563C129.504 65.0403 130.278 65.7603 130.746 66.2823L131.988 64.8063C131.43 64.2303 130.422 63.3843 129.504 62.6463C129.72 62.0163 129.882 61.3143 129.99 60.5763L128.082 60.3603C127.848 62.1063 127.236 63.5463 126.138 64.5183V60.1263H124.068V64.3203C123.654 63.8343 123.006 63.2223 122.394 62.6643C122.592 62.0163 122.736 61.2783 122.826 60.5043L120.882 60.3603C120.666 62.4483 119.982 64.0863 118.506 65.0763C118.56 64.1223 118.578 63.2403 118.578 62.4663V59.5323H131.772V57.5703H125.274V55.9503H123.042V57.5703H116.472V62.4483C116.472 65.0763 116.364 68.8383 114.96 71.4123C115.464 71.6283 116.4 72.2403 116.778 72.6003C117.894 70.5483 118.344 67.6323 118.506 65.0763C118.938 65.3643 119.73 65.9943 120.054 66.3363C120.702 65.8143 121.242 65.1663 121.674 64.4103C122.214 64.9683 122.754 65.5443 123.042 65.9763L124.068 64.7523V66.8403H119.55V68.6943H124.068V70.4763H118.416V72.3123H131.898V70.4763H126.138V68.6943Z" fill="white"/>
</svg>
