<svg width="159" height="140" viewBox="0 0 159 140" fill="none" xmlns="http://www.w3.org/2000/svg">
<path d="M156.555 98.4056C164.142 71.5871 143.518 14.3397 113.719 4.91302C83.9209 -4.51366 42.2027 7.14782 25.069 20.5571C7.93532 33.9664 -4.35709 63.7652 4.2102 90.5836C12.7775 117.402 39.2231 130.812 64.1794 137.889C89.1356 144.966 148.968 125.224 156.555 98.4056Z" fill="#1262A9"/>
<path d="M37.7354 77.4127H35.0986L29.9658 68.9928V77.4127H27.3291V64.6158H29.9658L35.1074 73.0533V64.6158H37.7354V77.4127ZM42.6748 72.9039V77.4127H40.0381V64.6158H45.0303C45.9912 64.6158 46.835 64.7916 47.5615 65.1432C48.2939 65.4948 48.8564 65.9957 49.249 66.6461C49.6416 67.2906 49.8379 68.026 49.8379 68.8522C49.8379 70.1061 49.4072 71.0963 48.5459 71.8229C47.6904 72.5436 46.5039 72.9039 44.9863 72.9039H42.6748ZM42.6748 70.7682H45.0303C45.7275 70.7682 46.2578 70.6041 46.6211 70.276C46.9902 69.9479 47.1748 69.4791 47.1748 68.8698C47.1748 68.2428 46.9902 67.736 46.6211 67.3492C46.252 66.9625 45.7422 66.7633 45.0918 66.7516H42.6748V70.7682ZM62.1689 71.3043C62.1689 72.5641 61.9463 73.6686 61.501 74.6178C61.0557 75.567 60.417 76.2994 59.585 76.8151C58.7588 77.3307 57.8096 77.5885 56.7373 77.5885C55.6768 77.5885 54.7305 77.3336 53.8984 76.8239C53.0664 76.3141 52.4219 75.5875 51.9648 74.6442C51.5078 73.6949 51.2764 72.6051 51.2705 71.3746V70.7418C51.2705 69.4821 51.4961 68.3746 51.9473 67.4196C52.4043 66.4586 53.0459 65.7233 53.8721 65.2135C54.7041 64.6979 55.6533 64.4401 56.7197 64.4401C57.7861 64.4401 58.7324 64.6979 59.5586 65.2135C60.3906 65.7233 61.0322 66.4586 61.4834 67.4196C61.9404 68.3746 62.1689 69.4791 62.1689 70.733V71.3043ZM59.4971 70.7242C59.4971 69.3824 59.2568 68.3629 58.7764 67.6656C58.2959 66.9684 57.6104 66.6198 56.7197 66.6198C55.835 66.6198 55.1523 66.9655 54.6719 67.6569C54.1914 68.3424 53.9482 69.3502 53.9424 70.6803V71.3043C53.9424 72.611 54.1826 73.6246 54.6631 74.3453C55.1436 75.066 55.835 75.4264 56.7373 75.4264C57.6221 75.4264 58.3018 75.0807 58.7764 74.3893C59.251 73.692 59.4912 72.6783 59.4971 71.3483V70.7242ZM67.8024 78.6727C68.8284 77.8267 69.3684 76.4407 69.7464 75.1447L68.0184 74.5507C67.6944 75.7207 67.0824 76.9087 66.1824 77.6467L67.8024 78.6727ZM69.7644 65.1727H72.5544C71.9784 66.5227 71.0424 67.8727 69.9984 68.7907V67.3507C70.3944 66.7747 70.7364 66.1627 71.0424 65.5687L69.7644 65.1727ZM66.7224 65.1727H69.2244C68.6304 66.3607 67.7304 67.5487 66.7224 68.4487V65.1727ZM73.8324 66.6127C74.0304 66.2347 74.2284 65.8387 74.3904 65.4607L73.3644 65.1727H75.8304C75.7224 65.6047 75.4704 66.1627 75.2184 66.6127H73.8324ZM74.9844 68.4847H73.4364V67.8547H74.9844V68.4847ZM74.9844 70.2127H73.4364V69.5287H74.9844V70.2127ZM74.9844 71.9587H73.4364V71.2387H74.9844V71.9587ZM71.6724 73.2547H72.1944L71.3124 74.0647C72.3924 74.5867 73.6524 75.4327 74.2644 76.0447L75.5604 74.7847C75.0384 74.3167 74.0844 73.7227 73.2204 73.2547H79.8984V71.9587H76.7664V71.2387H79.1964V70.2127H76.7664V69.5287H79.1964V68.4847H76.7664V67.8547H79.6824V66.6127H77.1084C77.3244 66.3067 77.5584 65.9467 77.7924 65.5867L76.0104 65.1727H80.1324V63.4267H73.6164V62.1847H71.3844V63.4267H64.7604V68.7007C64.7604 71.3647 64.6704 75.1447 63.3564 77.7547C63.7884 77.9707 64.6344 78.6187 64.9764 78.9967C66.3264 76.4227 66.6684 72.4627 66.7224 69.5647C66.9924 69.8527 67.2624 70.1407 67.4064 70.3207C67.6764 70.0867 67.9464 69.8347 68.2164 69.5647V73.5787H69.9984V68.9167C70.4124 69.2047 71.0604 69.7267 71.3304 70.0507C71.4384 69.9427 71.5644 69.8167 71.6724 69.6907V73.2547ZM73.0044 77.1967C72.4104 77.1967 72.3024 77.1427 72.3024 76.6927V74.7487H70.3584V76.7287C70.3584 78.3487 70.8084 78.8707 72.7524 78.8707H75.0384C76.4424 78.8707 76.9824 78.4027 77.1804 76.5487C76.6584 76.4407 75.8664 76.1527 75.4884 75.8827C75.4164 77.0347 75.3264 77.1967 74.8224 77.1967H73.0044ZM76.2444 75.0907C77.2164 76.2067 78.2064 77.7367 78.5844 78.7447L80.3844 77.8627C79.9704 76.8007 78.8904 75.3607 77.9184 74.2987L76.2444 75.0907ZM91.2024 71.7067V69.4927H95.0004V71.7067H91.2024ZM85.6044 71.7067C85.6404 71.0407 85.6584 70.3927 85.6584 69.8167V69.4927H89.0424V71.7067H85.6044ZM89.0424 65.4067V67.4947H85.6584V65.4067H89.0424ZM95.0004 67.4947H91.2024V65.4067H95.0004V67.4947ZM97.1244 63.3727H83.5344V69.7987C83.5344 72.3187 83.3724 75.5227 81.4104 77.6827C81.8964 77.9347 82.7604 78.6727 83.1024 79.0687C84.3984 77.6647 85.0464 75.6847 85.3704 73.7227H89.0424V78.7447H91.2024V73.7227H95.0004V76.4227C95.0004 76.7467 94.8744 76.8547 94.5324 76.8547C94.2084 76.8547 93.0204 76.8727 92.0124 76.8187C92.2824 77.3767 92.6244 78.2947 92.6964 78.8707C94.3164 78.8887 95.4144 78.8527 96.1524 78.4927C96.8724 78.1687 97.1244 77.5927 97.1244 76.4407V63.3727ZM105.692 69.2767H104.468V68.1787H105.692V69.2767ZM105.692 71.7427H104.468V70.6447H105.692V71.7427ZM101.714 70.6447H102.938V71.7427H101.714V70.6447ZM101.714 68.1787H102.938V69.2767H101.714V68.1787ZM112.712 67.3147H113.954C113.774 68.4667 113.558 69.6187 113.378 70.4107L115.106 70.8427C115.466 69.5107 115.916 67.4767 116.222 65.6947L114.8 65.3527L114.476 65.4067H110.642C110.876 64.4527 111.056 63.4627 111.2 62.4367L109.112 62.1667C108.842 64.5427 108.302 66.8107 107.384 68.4667V66.6847H104.72V65.7127H107.618V63.8587H104.72V62.1667H102.704V63.8587H99.8244V65.7127H102.704V66.6847H100.094V73.2367H102.704V74.2267H99.5904V76.0987H102.704V78.9607H104.702V76.0987H107.834V74.2267H104.702V73.2367H107.384V69.7807C107.816 70.0687 108.284 70.4287 108.536 70.6447C109.166 69.7447 109.67 68.6107 110.102 67.3147H110.624V69.9787C110.624 71.7067 109.814 75.2707 106.43 77.1967C106.808 77.6287 107.402 78.5287 107.636 78.9967C110.138 77.5567 111.398 74.8027 111.668 73.3267C111.956 74.7487 113.072 77.6107 115.34 78.9967C115.646 78.4567 116.24 77.5927 116.618 77.1067C113.486 75.1807 112.712 71.6707 112.712 69.9787V67.3147ZM132.188 65.8027H131.396V65.0287H132.188V65.8027ZM132.188 67.8907H131.396V67.0987H132.188V67.8907ZM127.544 67.0987H128.318V67.8907H127.544V67.0987ZM127.544 65.0287H128.318V65.8027H127.544V65.0287ZM130.244 67.0987V67.8907H129.47V67.0987H130.244ZM129.47 65.8027V65.0287H130.244V65.8027H129.47ZM133.844 63.6787H131.756V62.1847H130.244V63.6787H129.47V62.1847H127.976V63.6787H125.978V69.2587H133.844V63.6787ZM124.016 70.0147H119.39V69.2947H124.016V70.0147ZM120.722 74.4787V73.6507H122.648V74.4787H120.722ZM122.648 72.2467H120.722V71.4547H122.648V72.2467ZM120.416 64.2367H122.936V64.9747H121.046V67.8367H120.416V64.2367ZM122.18 67.8367V66.1807H122.936V67.8367H122.18ZM125.6 70.6447V71.2927H134.186V69.8707H125.618V67.8367H124.538V62.7247H118.886V67.8367H117.86V70.6447H118.922V78.9787H120.722V75.9187H122.648V77.1607C122.648 77.3047 122.612 77.3587 122.45 77.3767C122.288 77.3767 121.874 77.3767 121.46 77.3587C121.658 77.8087 121.874 78.4927 121.946 78.9787C122.792 78.9787 123.404 78.9607 123.872 78.6727C124.358 78.4027 124.466 77.9527 124.466 77.1787V70.6447H125.6ZM131.162 75.3787C131 75.9547 130.694 76.6927 130.442 77.2507H129.218C129.092 76.7107 128.768 75.9547 128.408 75.3787H131.162ZM127.958 73.1287H131.792V74.1187H127.958V73.1287ZM132.044 77.2507C132.332 76.7647 132.656 76.2067 132.98 75.6307L131.9 75.3787H133.592V71.8687H126.23V75.3787H127.958L126.86 75.7747C127.13 76.2067 127.364 76.7647 127.526 77.2507H125.222V78.7627H134.384V77.2507H132.044Z" fill="white"/>
</svg>
